<svg xmlns="http://www.w3.org/2000/svg" xmlns:xlink="http://www.w3.org/1999/xlink" width="200" height="270" viewBox="0 0 200 270">
  <defs>
    <clipPath id="clip-path">
      <path id="Path_2580" data-name="Path 2580" d="M1961.288,1069.514c-.014.2-.029.406-.043.615a5.352,5.352,0,0,1-1.04,3.3c-1.133,1.278-4.923,1.909-6.906,2.042a26.4,26.4,0,0,0-5.885.591l11.168,1.839s2.63,2.171,2.637,3.554c.007.943-.036,1.876-.106,2.8q-.083,1.268-.232,2.54c-.3,2.749-.745,5.557-.99,8.711-3.432.714-8.383,1.366-11.814,2.08,3.037.449,8.734,1.722,11.771,2.171-.085,2.287-.33,4.745-.569,7.192-.211,2.182-.416,4.35-.486,6.384a6.465,6.465,0,0,1-1.238,4.322c-1.384,1.563-3.966,2.112-6.321,2.6-9.466,1.947-20.738,3.231-29.514,6.615l-.041.016h.048c5.528-.12,11.168-.181,16.758-.29h.007c5.984-.116,11.912-.286,17.58-.642-.021-.028.022-.039.106-.044.737-.017,1.3.526,1.181,1.1-1.2,5.871-1.491,16.37-.134,25.069a47.415,47.415,0,0,0,1.042,5.036c-28.7-1.114-63.19-3.061-98.329-3.231-11.905-.061-23.881.131-35.73.531h-.007c-14.894.5-29.583,1.344-43.683,2.441a67.79,67.79,0,0,0-.689-13.544c3.574-.092,15.738-1.848,29.177-3.6a.092.092,0,0,1,.035-.006c7.046-.916,14.437-1.837,21.117-2.513-17.8-1.322-34.45.1-49.815,2.365a212.536,212.536,0,0,0-.851-25.6v-.005c-.027-.39-.064-.774-.091-1.163l-.007-.005c-.309-3.868-.655-7.756-.971-11.657,5.893-2.53,12.349-5.206,18.571-7.822,1.913-.8,3.8-1.6,5.647-2.386.535-.225,1.069-.45,1.59-.675.126-.055.253-.1.373-.159-.17.033-.331.066-.5.1-7.214,1.477-16.3,3.231-23.472,4.713-.091.016-.184.037-.275.054,1.54-1.76,2.229-11.93,2.229-11.93a35.524,35.524,0,0,1,5.626-1.163c.808-.126,1.547-.231,2.1-.307,7.931-1.135,14.029-1.519,20.273-3.484,1.238-.39,2.475-.845,3.741-1.377-10.006.28-21.384,1.113-31.39,1.394-.282-1.569-.577-3.116-.887-4.658q-.317-1.629-.653-3.242v-.017c-1.294-6.192-2.764-12.21-4.5-18.211,39.323-6.814,61.432-7.949,103.314-8.158,1.6-.005,3.347.005,5.224.033,8.165.127,18.741.62,29.619,1.477.3.026.612.048.914.076,17.159,1.383,34.921,3.681,45.124,6.918C1960.556,1059.19,1961.723,1062.821,1961.288,1069.514Z" transform="translate(-1776.895 -1043.801)" fill="none"/>
    </clipPath>
  </defs>
  <g id="わたぴーとは_" data-name="わたぴーとは？" transform="translate(-1023 -329)">
    <g id="Group_273" data-name="Group 273" transform="translate(1029 332.532)">
      <g id="Group_233" data-name="Group 233" transform="translate(4.698 0)">
        <g id="Group_218" data-name="Group 218">
          <g id="Group_217" data-name="Group 217">
            <path id="Path_2495" data-name="Path 2495" d="M1850.093,974.984a35.221,35.221,0,1,1-35.216-35.474A35.352,35.352,0,0,1,1850.093,974.984Z" transform="translate(-1779.446 -939.303)" fill="#1a1311"/>
            <path id="Path_2496" data-name="Path 2496" d="M1814.933,1010.727a35.685,35.685,0,1,1,35.424-35.684A35.6,35.6,0,0,1,1814.933,1010.727Zm0-70.954a35.272,35.272,0,1,0,35.01,35.27A35.185,35.185,0,0,0,1814.933,939.773Z" transform="translate(-1779.503 -939.36)" fill="#1a1311"/>
          </g>
        </g>
        <g id="Group_220" data-name="Group 220" transform="translate(107.987)">
          <g id="Group_219" data-name="Group 219">
            <path id="Path_2497" data-name="Path 2497" d="M1857.83,974.984a35.221,35.221,0,1,0,35.216-35.474A35.352,35.352,0,0,0,1857.83,974.984Z" transform="translate(-1857.624 -939.303)" fill="#1a1311"/>
            <path id="Path_2498" data-name="Path 2498" d="M1893.1,1010.727a35.685,35.685,0,1,1,35.429-35.684A35.594,35.594,0,0,1,1893.1,1010.727Zm0-70.954a35.272,35.272,0,1,0,35.016,35.27A35.18,35.18,0,0,0,1893.1,939.773Z" transform="translate(-1857.681 -939.36)" fill="#1a1311"/>
          </g>
        </g>
        <g id="Group_221" data-name="Group 221" transform="translate(17.217 20.716)">
          <path id="Path_2499" data-name="Path 2499" d="M1929.844,1008.213a118.853,118.853,0,0,1,2.216,12.688h0a77.78,77.78,0,0,1,.45,13.451h0a52.408,52.408,0,0,1-2.525,13.523h0a41,41,0,0,1-6.818,12.664h0a69.249,69.249,0,0,1-11.02,10.974h0a74.3,74.3,0,0,1-13.988,8.766h0a80.046,80.046,0,0,1-34.8,7.811h0a80.045,80.045,0,0,1-34.8-7.811h0a74.081,74.081,0,0,1-13.987-8.766h0a69.152,69.152,0,0,1-11.019-10.974h0a41.043,41.043,0,0,1-6.825-12.664h0a52.4,52.4,0,0,1-2.521-13.523h0a77.5,77.5,0,0,1,.447-13.451h0a119.625,119.625,0,0,1,2.217-12.688h0a112,112,0,0,1,3.245-11.672h0a68.7,68.7,0,0,1,4.536-10.519h0a45.084,45.084,0,0,1,14.6-16.379h0a76.924,76.924,0,0,1,20.749-9.767h0a81.24,81.24,0,0,1,23.351-3.4h0a81.16,81.16,0,0,1,23.346,3.4h0a77.019,77.019,0,0,1,20.76,9.767h0a45.114,45.114,0,0,1,14.6,16.379h0a68.819,68.819,0,0,1,4.537,10.519h0A112.111,112.111,0,0,1,1929.844,1008.213Z" transform="translate(-1791.157 -953.552)" fill="#e12c00"/>
          <path id="Path_2500" data-name="Path 2500" d="M1864.17,1091.833a82.472,82.472,0,0,1-36.071-8.1,77.17,77.17,0,0,1-14.543-9.115,72.369,72.369,0,0,1-11.486-11.442,44.141,44.141,0,0,1-7.314-13.563,55.561,55.561,0,0,1-2.667-14.278,81.042,81.042,0,0,1,.461-13.963,121.689,121.689,0,0,1,2.271-13,114.266,114.266,0,0,1,3.332-11.976,70.954,70.954,0,0,1,4.732-10.966,47.715,47.715,0,0,1,15.551-17.419,79.461,79.461,0,0,1,21.542-10.139,85.059,85.059,0,0,1,48.385,0,79.682,79.682,0,0,1,21.55,10.139,47.78,47.78,0,0,1,15.545,17.418,71.117,71.117,0,0,1,4.732,10.969,114.1,114.1,0,0,1,3.33,11.974h0a121.037,121.037,0,0,1,2.268,13,80.99,80.99,0,0,1,.465,13.958,55.581,55.581,0,0,1-2.674,14.284,44.085,44.085,0,0,1-7.3,13.558,72.391,72.391,0,0,1-11.487,11.441,77.169,77.169,0,0,1-14.544,9.115A82.463,82.463,0,0,1,1864.17,1091.833Zm0-131.618a78.191,78.191,0,0,0-22.505,3.281,73.638,73.638,0,0,0-19.956,9.391,42.007,42.007,0,0,0-13.661,15.339,65.261,65.261,0,0,0-4.34,10.071,108.965,108.965,0,0,0-3.159,11.368,115.617,115.617,0,0,0-2.163,12.376,74.89,74.89,0,0,0-.434,12.941,49.68,49.68,0,0,0,2.375,12.767,38.291,38.291,0,0,0,6.335,11.763,66.258,66.258,0,0,0,10.554,10.509,71.234,71.234,0,0,0,13.43,8.418,78.486,78.486,0,0,0,67.048,0,71.529,71.529,0,0,0,13.436-8.419,66.547,66.547,0,0,0,10.552-10.509,38.216,38.216,0,0,0,6.328-11.76,49.723,49.723,0,0,0,2.38-12.773,75.226,75.226,0,0,0-.438-12.937,115.044,115.044,0,0,0-2.159-12.375,108.954,108.954,0,0,0-3.16-11.365,65.21,65.21,0,0,0-4.339-10.075,42.054,42.054,0,0,0-13.655-15.339,73.76,73.76,0,0,0-19.965-9.391A78.137,78.137,0,0,0,1864.17,960.215Z" transform="translate(-1791.967 -954.358)" fill="#1a1311"/>
        </g>
        <path id="Path_2501" data-name="Path 2501" d="M1836.233,1009.168c0-4.116,7.022-3.586,11.059-3.586s11.054-.53,11.054,3.586-3.428,13.4-11.054,13.4S1836.233,1013.283,1836.233,1009.168Z" transform="translate(-1757.872 -914.118)" fill="#180003"/>
        <g id="Group_226" data-name="Group 226" transform="translate(46.318 46.591)">
          <g id="Group_223" data-name="Group 223">
            <g id="Group_222" data-name="Group 222">
              <path id="Path_2502" data-name="Path 2502" d="M1843.056,997.39c0,12.245-6.246,22.176-13.948,22.176s-13.947-9.93-13.947-22.176,6.247-22.174,13.947-22.174S1843.056,985.142,1843.056,997.39Z" transform="translate(-1812.224 -972.279)" fill="#fff"/>
              <path id="Path_2503" data-name="Path 2503" d="M1829.918,1023.312c-9.468,0-16.884-11.03-16.884-25.111s7.416-25.112,16.884-25.112,16.883,11.03,16.883,25.112S1839.386,1023.312,1829.918,1023.312Zm0-44.349c-5.969,0-11.01,8.81-11.01,19.239s5.042,19.237,11.01,19.237,11.01-8.81,11.01-19.237S1835.887,978.963,1829.918,978.963Z" transform="translate(-1813.035 -973.09)" fill="#1a1311"/>
            </g>
          </g>
          <g id="Group_225" data-name="Group 225" transform="translate(10.565 9.579)">
            <g id="Group_224" data-name="Group 224">
              <path id="Path_2504" data-name="Path 2504" d="M1839.77,994.746c0,8.067-4.242,14.6-9.48,14.6s-9.473-6.531-9.473-14.6,4.241-14.588,9.473-14.588S1839.77,986.687,1839.77,994.746Z" transform="translate(-1820.633 -979.974)" fill="#1a1311"/>
              <path id="Path_2505" data-name="Path 2505" d="M1830.342,1009.576c-5.326,0-9.658-6.63-9.658-14.78s4.332-14.771,9.658-14.771,9.663,6.625,9.663,14.771S1835.67,1009.576,1830.342,1009.576Zm0-29.185c-5.123,0-9.291,6.463-9.291,14.406s4.167,14.413,9.291,14.413,9.3-6.466,9.3-14.413S1835.467,980.391,1830.342,980.391Z" transform="translate(-1820.684 -980.025)" fill="#1a1311"/>
            </g>
            <path id="Path_2506" data-name="Path 2506" d="M1827.944,985.077c-.486,0-1.955,2.007-1.955,5.659s1.468,5.656,1.955,5.656,1.958-2.007,1.958-5.656S1828.432,985.077,1827.944,985.077Z" transform="translate(-1818.661 -978.098)" fill="#ffec00"/>
          </g>
        </g>
        <g id="Group_231" data-name="Group 231" transform="translate(98.756 46.591)">
          <g id="Group_228" data-name="Group 228">
            <g id="Group_227" data-name="Group 227">
              <path id="Path_2507" data-name="Path 2507" d="M1881.019,997.39c0,12.245-6.246,22.176-13.948,22.176s-13.947-9.93-13.947-22.176,6.248-22.174,13.947-22.174S1881.019,985.142,1881.019,997.39Z" transform="translate(-1850.187 -972.279)" fill="#fff"/>
              <path id="Path_2508" data-name="Path 2508" d="M1867.882,1023.312c-9.468,0-16.884-11.03-16.884-25.111s7.416-25.112,16.884-25.112,16.883,11.03,16.883,25.112S1877.349,1023.312,1867.882,1023.312Zm0-44.349c-5.969,0-11.01,8.81-11.01,19.239s5.042,19.237,11.01,19.237,11.01-8.81,11.01-19.237S1873.85,978.963,1867.882,978.963Z" transform="translate(-1850.998 -973.09)" fill="#1a1311"/>
            </g>
          </g>
          <g id="Group_230" data-name="Group 230" transform="translate(10.565 9.579)">
            <g id="Group_229" data-name="Group 229">
              <path id="Path_2509" data-name="Path 2509" d="M1877.733,994.746c0,8.067-4.242,14.6-9.48,14.6s-9.473-6.531-9.473-14.6,4.24-14.588,9.473-14.588S1877.733,986.687,1877.733,994.746Z" transform="translate(-1858.596 -979.974)" fill="#1a1311"/>
              <path id="Path_2510" data-name="Path 2510" d="M1868.3,1009.576c-5.325,0-9.657-6.63-9.657-14.78s4.332-14.771,9.657-14.771,9.663,6.625,9.663,14.771S1873.632,1009.576,1868.3,1009.576Zm0-29.185c-5.122,0-9.289,6.463-9.289,14.406s4.168,14.413,9.289,14.413,9.3-6.466,9.3-14.413S1873.428,980.391,1868.3,980.391Z" transform="translate(-1858.647 -980.025)" fill="#1a1311"/>
            </g>
            <path id="Path_2511" data-name="Path 2511" d="M1865.906,985.077c-.485,0-1.953,2.007-1.953,5.659s1.468,5.656,1.953,5.656,1.959-2.007,1.959-5.656S1866.395,985.077,1865.906,985.077Z" transform="translate(-1856.624 -978.098)" fill="#ffec00"/>
          </g>
        </g>
        <path id="Path_2512" data-name="Path 2512" d="M1835.91,1033.641c-6,0-13.143-3.22-20.135-14.1a2.642,2.642,0,1,1,4.446-2.856c4.97,7.734,10.252,11.661,15.7,11.669h.017c9.443,0,17.022-11.556,17.1-11.673a2.646,2.646,0,0,1,4.445.006h0c.076.117,7.644,11.668,17.093,11.668h.012c5.447-.007,10.73-3.933,15.7-11.669a2.642,2.642,0,1,1,4.446,2.856c-6.01,9.356-12.793,14.1-20.16,14.1-8.844,0-15.887-6.945-19.3-11.093-.507.6-1.1,1.265-1.816,2.025a30.3,30.3,0,0,1-10.654,7.69A18.526,18.526,0,0,1,1835.91,1033.641Z" transform="translate(-1765.833 -910.342)" fill="#1a1311"/>
        <g id="Group_232" data-name="Group 232" transform="translate(73.138 105.122)">
          <path id="Path_2513" data-name="Path 2513" d="M1848.005,1017.378h0s5.56,8.651,13.64,11.775c0,0-4.775,10.219-13.64,10.219s-13.639-10.219-13.639-10.219c8.08-3.124,13.64-11.775,13.64-11.775h0Z" transform="translate(-1831.722 -1014.734)" fill="#df5695"/>
          <path id="Path_2514" data-name="Path 2514" d="M1848.733,1042.745c-10.426,0-15.809-11.263-16.033-11.744a2.642,2.642,0,0,1,1.441-3.583c7.194-2.78,12.318-10.659,12.371-10.738a2.638,2.638,0,0,1,3.571-.844,2.609,2.609,0,0,1,.893.872c.322.488,5.382,8.016,12.349,10.709a2.643,2.643,0,0,1,1.442,3.585C1864.544,1031.481,1859.161,1042.745,1848.733,1042.745Zm-9.889-11.708c1.763,2.577,5.183,6.423,9.889,6.423,4.743,0,8.148-3.84,9.9-6.417a35.8,35.8,0,0,1-9.9-8.522A35.786,35.786,0,0,1,1838.844,1031.037Z" transform="translate(-1832.452 -1015.464)" fill="#1a1311"/>
        </g>
      </g>
      <g id="Group_272" data-name="Group 272" transform="translate(0.413 144.264)">
        <path id="Path_2515" data-name="Path 2515" d="M1963.579,1053.165a10.58,10.58,0,0,0-2.3-1.915c-1.547-.395-3.269-.751-5.126-1.085-20.519-3.648-58.169-3.665-75.756-3.577-40.118.2-70.179-.209-103.314,4.318a19.807,19.807,0,0,0-.682,4.185c2.469,8.524,3.72,16.73,5.365,25.782.057,0,.113-.005.169-.005,8.579-.247,19.127-.89,28.241-1.241q2.237-.091,4.339-.148c-7.636,3.22-14.513,3.5-24.014,4.859a52.192,52.192,0,0,0-7.729,1.471s.922,5.14-2.229,8.09a23.779,23.779,0,0,1,0,3.84c7.384-1.525,16.863-3.351,24.247-4.871-8.347,3.582-17.834,3.615-26.181,7.2.535,3.528,1.274,7.274,1.948,11.136,1.315,7.547,2.342,15.528.978,23.142a32.963,32.963,0,0,1-1.005,4.154s1.251,2.4,1.829,3.7c-.985.022-1.772.033-2.343.049.534,3.906,2.539,8.284.689,13.544a38.958,38.958,0,0,1,2.377,5.359c25.315-1.97,50.314-3.966,77.177-3.835,35.139.17,69.4,2.727,98.1,3.835a25.53,25.53,0,0,0,.1-5.1,66.059,66.059,0,0,1-2.188-6.7c-1.871-6.928-2.559-13.84-1.6-18.5.119-.571-.443-1.119-1.182-1.1,0-.033,2.686-1.026,2.778-1.026-10.991.685-22.945.685-34.393.932,8.782-3.4,16.989-2.491,26.475-4.444,2.355-.482,5.358-.943,7.2-2.182.189-.127.373-.258.556-.4v-.006a7.787,7.787,0,0,0,3.41-4.931c.549-4.438.359-14.344.514-18.668-3.038-.449-8.72,1.778-11.758,1.327,3.354-.7,8.945-2.906,12.4-3.674.084-.022.161-.038.239-.055.571-7.2,1.759-10.071,1.759-13.231a6.764,6.764,0,0,0-1.449-3.818,6.922,6.922,0,0,0-.569-.707l-13.038-.039a26.455,26.455,0,0,1,5.886-.593c1.984-.131,6.287-.285,7.412-1.562a16.6,16.6,0,0,0,1.984-2.256,2.121,2.121,0,0,0,.309-.9A131.036,131.036,0,0,0,1963.579,1053.165Zm-175.231,88.93c13.332-1.881,26.405-3.275,42-2.117C1816.181,1141.415,1798.833,1141.887,1788.348,1142.1Z" transform="translate(-1776.401 -1042.746)" fill="#7b4b1a"/>
        <g id="Group_234" data-name="Group 234" transform="translate(2.207 7.419)">
          <path id="Path_2516" data-name="Path 2516" d="M1811.907,1083.512l-31.96,17.147c-.674-3.862-1.413-7.608-1.948-11.136,8.347-3.587,17.834-3.62,26.181-7.2-7.384,1.519-16.863,3.345-24.247,4.87a23.773,23.773,0,0,0,0-3.84l25.8-9.122Z" transform="translate(-1777.999 -1039.617)" fill="#1a1c20" opacity="0.3"/>
          <path id="Path_2517" data-name="Path 2517" d="M1815.975,1070.236a14.731,14.731,0,0,1-4.339,2.106c-.985.34-1.984.664-2.989.966-9.114.351-19.662.993-28.241,1.24.964-2.557,1.069-5.507,3.551-7.29a13.707,13.707,0,0,1,5.66-1.828q8.945-1.471,18.059-2.155a19.515,19.515,0,0,1,5.963.187c1.92.46,3.692,1.617,4.036,3.153A3.79,3.79,0,0,1,1815.975,1070.236Z" transform="translate(-1777.081 -1043.846)" fill="#1a1c20" opacity="0.3"/>
          <path id="Path_2518" data-name="Path 2518" d="M1914.295,1072.539a2.124,2.124,0,0,1-.309.9c-7.729-5.173-11.287-14.031-8.283-21.672a8.9,8.9,0,0,1,1.554-2.594c1.856.334,3.579.691,5.126,1.085a10.572,10.572,0,0,1,2.3,1.915A131.091,131.091,0,0,1,1914.295,1072.539Z" transform="translate(-1729.711 -1049.172)" fill="#1a1c20" opacity="0.3"/>
          <path id="Path_2519" data-name="Path 2519" d="M1913.552,1074.291c0,3.161-1.188,6.029-1.759,13.232-.077.016-.155.033-.239.055-1.037-4.673-5.25-5.888-6-9.185-.626-2.782-.755-4.107,2.015-5.922a16.337,16.337,0,0,1,4.528-2A6.764,6.764,0,0,1,1913.552,1074.291Z" transform="translate(-1729.502 -1041.05)" fill="#1a1c20" opacity="0.3"/>
          <path id="Path_2520" data-name="Path 2520" d="M1911.758,1084.555c-.155,4.323.034,14.23-.514,18.668a7.788,7.788,0,0,1-3.411,4.931,16.333,16.333,0,0,1-.535-2.084c-.667-2.968-3.037-5.551-3.938-8.487a9.4,9.4,0,0,1,1.872-8.7A14.341,14.341,0,0,1,1911.758,1084.555Z" transform="translate(-1730.346 -1035.681)" fill="#1a1c20" opacity="0.3"/>
          <path id="Path_2521" data-name="Path 2521" d="M1957.356,1139.333c-28.7-1.108-62.957-3.664-98.1-3.834-26.863-.131-51.862,1.865-77.177,3.834a38.976,38.976,0,0,0-2.377-5.359c1.849-5.26-.155-9.637-.69-13.544.571-.017,1.358-.027,2.343-.049-.578-1.306-1.829-3.7-1.829-3.7a32.905,32.905,0,0,0,1.005-4.153,67.708,67.708,0,0,1,10.486-3.652,154.768,154.768,0,0,1,31.432-4.916c7.715-.449,16.392-.153,21.827,4.148,4.24,3.357,5.583,8.519,10.077,11.672,4.754,3.336,11.744,3.6,18.136,3.687l41.488.559c13.867.192,28.113.445,41.284,3.511a66.051,66.051,0,0,0,2.188,6.7A25.527,25.527,0,0,1,1957.356,1139.333Z" transform="translate(-1777.61 -1028.341)" fill="#1a1c20" opacity="0.3"/>
        </g>
        <path id="Path_2522" data-name="Path 2522" d="M1961.288,1069.514c-.014.2-.029.406-.043.615a5.352,5.352,0,0,1-1.04,3.3c-1.133,1.278-4.923,1.909-6.906,2.042a26.4,26.4,0,0,0-5.885.591l11.168,1.839s2.63,2.171,2.637,3.554c.007.943-.036,1.876-.106,2.8q-.083,1.268-.232,2.54c-.3,2.749-.745,5.557-.99,8.711-3.432.714-8.383,1.366-11.814,2.08,3.037.449,8.734,1.722,11.771,2.171-.085,2.287-.33,4.745-.569,7.192-.211,2.182-.416,4.35-.486,6.384a6.465,6.465,0,0,1-1.238,4.322c-1.384,1.563-3.966,2.112-6.321,2.6-9.466,1.947-20.738,3.231-29.514,6.615l-.041.016h.048c5.528-.12,11.168-.181,16.758-.29h.007c5.984-.116,11.912-.286,17.58-.642-.021-.028.022-.039.106-.044.737-.017,1.3.526,1.181,1.1-1.2,5.871-1.491,16.37-.134,25.069a47.415,47.415,0,0,0,1.042,5.036c-28.7-1.114-63.19-3.061-98.329-3.231-11.905-.061-23.881.131-35.73.531h-.007q-4.566.156-9.107.351c-11.771.51-23.36,1.218-34.576,2.09a67.79,67.79,0,0,0-.689-13.544c3.574-.092,15.738-1.848,29.177-3.6a.092.092,0,0,1,.035-.006c5.774-.751,11.785-1.5,17.439-2.129,1.245-.131,2.475-.264,3.679-.384q-1.635-.122-3.249-.214a229.127,229.127,0,0,0-46.566,2.579,212.536,212.536,0,0,0-.851-25.6v-.005c-.027-.39-.064-.774-.091-1.163l-.007-.005c-.309-3.868-.655-7.756-.971-11.657,5.893-2.53,12.349-5.206,18.571-7.822,1.913-.8,3.8-1.6,5.647-2.386.535-.225,1.069-.45,1.59-.675.126-.055.253-.1.373-.159-.17.033-.331.066-.5.1-7.214,1.477-16.3,3.231-23.472,4.713-.091.016-.184.037-.275.054,1.54-1.76,2.229-11.93,2.229-11.93a35.524,35.524,0,0,1,5.626-1.163c.808-.126,1.547-.231,2.1-.307,7.931-1.135,14.029-1.519,20.273-3.484,1.238-.39,2.475-.845,3.741-1.377-10.006.28-21.384,1.113-31.39,1.394-.282-1.569-.577-3.116-.887-4.658q-.317-1.629-.653-3.242v-.017c-1.294-6.192-2.764-12.21-4.5-18.211,39.323-6.814,61.432-7.949,103.314-8.158,1.6-.005,3.347.005,5.224.033,8.165.127,18.741.62,29.619,1.477.3.026.612.048.914.076,4.859.39,9.767.857,14.536,1.394,12.081,1.366,23.276,3.2,30.589,5.524C1960.556,1059.19,1961.723,1062.821,1961.288,1069.514Z" transform="translate(-1776.212 -1043.801)" fill="#ce7b23"/>
        <g id="Group_235" data-name="Group 235" transform="translate(0.682)">
          <path id="Path_2523" data-name="Path 2523" d="M1885.433,1043.835c-15.815,1.4-32.354,1.207-51.263,3.144-16.786,1.717-33.846,3.478-50.131,7.071-1.238.273-2.6.624-3.214,1.5a3.063,3.063,0,0,0-.323,2.068c.275,3.351.619,9.194.894,12.55-1.294-6.192-2.764-12.21-4.5-18.211,39.323-6.814,61.432-7.949,103.314-8.158C1881.8,1043.8,1883.556,1043.808,1885.433,1043.835Z" transform="translate(-1776.895 -1043.801)" fill="#ce7b23" opacity="0.5"/>
          <path id="Path_2524" data-name="Path 2524" d="M1812.9,1068.515c-10.006.281-21.384,1.114-31.39,1.394-.282-1.569-.577-3.116-.887-4.658.443.478.865,1.58,1.238,2.051.571.714,1.836.8,2.912.807C1794.176,1068.175,1803.5,1068.448,1812.9,1068.515Z" transform="translate(-1775.472 -1035.622)" fill="#ce7b23" opacity="0.5"/>
          <path id="Path_2525" data-name="Path 2525" d="M1829.439,1117.827c-17.8-1.322-34.45.105-49.815,2.365a212.56,212.56,0,0,0-.851-25.6c1.013,6.467,3.094,13.681,4.107,20.148,10.2-.718,17.355-.225,28.656.445C1816.746,1115.49,1823.167,1115.842,1829.439,1117.827Z" transform="translate(-1776.179 -1024.435)" fill="#ce7b23" opacity="0.5"/>
          <path id="Path_2526" data-name="Path 2526" d="M1803.57,1077.728c-7.216,1.475-16.8,3.334-23.972,4.817a39.317,39.317,0,0,1,10.857-5.234C1794.554,1076.2,1800.5,1075.351,1803.57,1077.728Z" transform="translate(-1775.864 -1031.445)" fill="#ce7b23" opacity="0.5"/>
          <path id="Path_2527" data-name="Path 2527" d="M1881.733,1103.947h.021l-.028.005Z" transform="translate(-1736.923 -1020.867)" fill="#ce7b23" opacity="0.5"/>
          <path id="Path_2528" data-name="Path 2528" d="M1919.3,1089.516c-.211,2.182-.416,4.349-.486,6.384a6.465,6.465,0,0,1-1.238,4.322c-1.384,1.564-3.966,2.112-6.321,2.6-9.466,1.948-20.738,3.231-29.514,6.615,3.854-3.883,6.063-4.391,12.012-5.992,5.647-1.519,17.2-.837,21.975-3.634C1918.54,1098.16,1918.47,1092.182,1919.3,1089.516Z" transform="translate(-1736.917 -1026.37)" fill="#ce7b23" opacity="0.5"/>
          <path id="Path_2529" data-name="Path 2529" d="M1909.3,1087.244a8.707,8.707,0,0,1-.175,2.14A7.88,7.88,0,0,1,1909.3,1087.244Z" transform="translate(-1726.481 -1027.236)" fill="#ce7b23" opacity="0.5"/>
          <path id="Path_2530" data-name="Path 2530" d="M1913.627,1074.925c-.3,2.749-.745,5.557-.991,8.71-3.432.714-8.383,1.366-11.814,2.08a26.892,26.892,0,0,1,7.785-2.98,4.241,4.241,0,0,0,2.4-.938,2.385,2.385,0,0,0,.408-.79C1912.143,1078.979,1912.889,1076.955,1913.627,1074.925Z" transform="translate(-1729.642 -1031.933)" fill="#ce7b23" opacity="0.5"/>
          <path id="Path_2531" data-name="Path 2531" d="M1914.147,1072.546c.007.943-.036,1.876-.106,2.8a6.948,6.948,0,0,0-2.692-4.025,14.769,14.769,0,0,0-3.306-1.515c-2.56-.927-5.133-1.721-7.7-2.655l11.168,1.839S1914.141,1071.163,1914.147,1072.546Z" transform="translate(-1729.825 -1034.897)" fill="#ce7b23" opacity="0.5"/>
          <path id="Path_2532" data-name="Path 2532" d="M1779.706,1130.378a67.778,67.778,0,0,0-.69-13.544c3.574-.092,15.739-1.848,29.177-3.6-8.629,1.695-16.993,4.085-25.885,5.836.464,3.829.626,5.145,1.09,8.974,8.98-.312,36-.752,39.991-.109C1808.5,1128.441,1793.806,1129.281,1779.706,1130.378Z" transform="translate(-1776.086 -1017.326)" fill="#ce7b23" opacity="0.5"/>
          <path id="Path_2533" data-name="Path 2533" d="M1780.109,1088.7a44.31,44.31,0,0,1-1.133,10.422l-.007-.005c-.309-3.868-.654-7.756-.971-11.657,5.893-2.529,12.349-5.206,18.572-7.822C1792.5,1082.48,1780.109,1088.7,1780.109,1088.7Z" transform="translate(-1776.474 -1030.136)" fill="#ce7b23" opacity="0.5"/>
          <path id="Path_2534" data-name="Path 2534" d="M1912.75,1104.342c-1.2,5.87-1.491,16.37-.134,25.069-3.242-6.028-3.8-12.962-3.192-19.572.148-1.58.161-3.489-1.547-4.357a6.865,6.865,0,0,0-2.25-.526c-3.439-.406-8.313-.624-11.744-1.03,5.984-.116,11.913-.286,17.58-.642-.021-.028.022-.039.106-.044C1912.306,1103.223,1912.869,1103.766,1912.75,1104.342Z" transform="translate(-1732.288 -1021.137)" fill="#ce7b23" opacity="0.5"/>
          <path id="Path_2535" data-name="Path 2535" d="M1922.9,1069.075c-.161.576-.3,1.141-.408,1.689a55.05,55.05,0,0,0-.977-9.764c-.232-1.427-.352-2.941-1.358-4.147a10.113,10.113,0,0,0-4.071-2.457q-5.043-2.041-10.365-3.626c-4.361-1.307-8.84-2.376-13.312-3.439a110.035,110.035,0,0,0-14.831-2.381c17.158,1.383,34.92,3.681,45.124,6.917C1922.166,1058.752,1923.333,1062.383,1922.9,1069.075Z" transform="translate(-1738.505 -1043.363)" fill="#ce7b23" opacity="0.5"/>
        </g>
        <g id="Group_267" data-name="Group 267" transform="translate(0.682)">
          <g id="Group_266" data-name="Group 266" clip-path="url(#clip-path)">
            <g id="Group_265" data-name="Group 265" transform="translate(-71.327 0.221)">
              <g id="Group_246" data-name="Group 246" transform="translate(0 0.749)">
                <g id="Group_245" data-name="Group 245" transform="translate(68.555)">
                  <g id="Group_236" data-name="Group 236" opacity="0.3">
                    <path id="Path_2536" data-name="Path 2536" d="M1836.891,1057.2a13.011,13.011,0,0,1-3.456,3.143,28.093,28.093,0,0,1-4.193,2.225,45.732,45.732,0,0,1-9.3,2.778c-1.605.32-3.2.612-4.814.859-.785.134-1.6.24-2.383.344-.793.123-1.577.246-2.362.365-1.564.268-3.112.495-4.641.762-1.529.29-3.037.58-4.518.861s-2.947.573-4.379.816-2.852.456-4.229.612c-1.384.171-2.727.279-4.028.37s-2.569.178-3.773.242c-2.41.129-4.641.2-6.6.247-.978.033-1.9.042-2.755.048-.2,0-.392,0-.577.006.007-.575.007-1.144.014-1.707.1-.018.193-.033.289-.05.833-.145,1.743-.294,2.721-.43,1.956-.3,4.146-.575,6.542-.837s5-.532,7.753-.7c1.37-.1,2.8-.134,4.249-.177s2.941-.086,4.449-.135,3.05-.14,4.593-.278,3.1-.312,4.636-.608c1.535-.275,3.1-.543,4.62-.913s2.988-.839,4.434-1.354,2.858-1.08,4.215-1.681c.682-.292,1.349-.6,2.011-.914l.978-.467.944-.483c2.479-1.3,4.717-2.863,5.771-4.518a3.53,3.53,0,0,0,.586-2.375,4.551,4.551,0,0,0-1.15-2.283,12.936,12.936,0,0,0-2.266-2.094c-.193-.145-.387-.29-.572-.435l-.743-.468a14.277,14.277,0,0,0-1.412-.843l-1.308-.71c-.477-.214-.945-.424-1.392-.633-.916-.4-1.825-.753-2.678-1.091-.185-.06-.373-.123-.551-.188,1.281.005,2.589.011,3.932.011,1.109,0,2.307.015,3.587.037h.007l.475.193c.627.253,1.1.521,1.639.794.261.135.524.269.792.409l.1.054.02.011.109.064.048.033.207.128.413.258a15.039,15.039,0,0,1,3.167,2.551,7.111,7.111,0,0,1,1.984,3.831A5.928,5.928,0,0,1,1836.891,1057.2Z" transform="translate(-1774.888 -1044.503)" fill="#1a1c20"/>
                  </g>
                  <g id="Group_237" data-name="Group 237" transform="translate(0.007 0.693)" opacity="0.3">
                    <path id="Path_2537" data-name="Path 2537" d="M1774.9,1078.417q1.374-.015,3.037-.016c.715-.011,1.473.006,2.272-.022l1.239-.032c.413-.016.833-.037,1.259-.054,1.723-.069,3.589-.15,5.572-.269,3.993-.242,8.478-.6,13.317-.906,1.213-.072,2.445-.147,3.7-.227l1.9-.113c.647-.026,1.3-.053,1.954-.086,2.638-.113,5.365-.258,8.161-.452,5.6-.36,11.48-.881,17.581-1.466q4.567-.426,9.282-.807c3.134-.289,6.315-.537,9.524-.742,6.357-.51,12.912-.289,19.53-.778a42.981,42.981,0,0,0,9.958-1.671,16.219,16.219,0,0,0,2.424-1.047,8.826,8.826,0,0,0,1.13-.736l.137-.1.069-.054.1-.091a2.8,2.8,0,0,0,.337-.349,2.932,2.932,0,0,0,.435-.783,4.06,4.06,0,0,0-.1-2.575,12.43,12.43,0,0,0-.873-1.986c-.661-1.236-1.427-2.369-2.149-3.477-.366-.552-.724-1.1-1.054-1.627a11.376,11.376,0,0,1-.819-1.51,2.267,2.267,0,0,1-.138-.439l.007-.114a.361.361,0,0,1,.021-.129,1.434,1.434,0,0,1,.062-.22,2.449,2.449,0,0,1,.7-.983,10.944,10.944,0,0,1,3.017-1.821,52.374,52.374,0,0,1,7.9-2.509c2.728-.672,5.469-1.247,8.154-1.757,5.377-1.031,10.549-1.87,15.344-2.59q3.015-.466,5.818-.88c-8.029.08-15.734.166-22.552.247-2.651.467-5.365,1-8.113,1.681-1.446.354-2.9.757-4.359,1.225a36.4,36.4,0,0,0-4.366,1.676,14.581,14.581,0,0,0-4.132,2.7,5.518,5.518,0,0,0-1.411,2.246,3.771,3.771,0,0,0-.144.681,2.431,2.431,0,0,0-.022.329l-.006.112c0,.114.006.1.006.156l.008.113a3.969,3.969,0,0,0,.4,1.309,14.1,14.1,0,0,0,1.108,1.865c.387.576.779,1.123,1.172,1.666.778,1.086,1.542,2.148,2.182,3.208a9.7,9.7,0,0,1,.785,1.552,2.253,2.253,0,0,1,.207,1.16l-.027.086c.007,0,.007-.011.021-.011-.007.011-.021.021-.034.043l-.007.005a.12.12,0,0,1-.035.026l-.074.07a5.928,5.928,0,0,1-.7.515,11.547,11.547,0,0,1-1.769.886,40.3,40.3,0,0,1-8.932,2.1c-3.168.45-6.4.725-9.635.945q-2.436.153-4.862.3c-1.617.1-3.257.225-4.842.349-3.194.247-6.376.45-9.517.6s-6.259.193-9.317.253c-6.122.118-12.064.1-17.669.333-2.8.1-5.531.232-8.161.393q-.992.056-1.963.118c-.655.049-1.3.1-1.942.151-1.28.1-2.535.2-3.766.3-4.9.478-9.338.988-13.25,1.487-1.968.221-3.815.435-5.523.651-.428.048-.839.1-1.247.151s-.8.081-1.177.124q-1.168.12-2.231.225c-1.06.1-2.039.2-2.927.311Z" transform="translate(-1774.893 -1045.005)" fill="#1a1c20"/>
                  </g>
                  <g id="Group_238" data-name="Group 238" transform="translate(7.614 10.465)" opacity="0.3">
                    <path id="Path_2538" data-name="Path 2538" d="M1963.229,1052.1v.322s-.979.048-2.811.145c-1.825.151-4.511.37-7.905.762-3.4.376-7.52.935-12.223,1.606-4.717.651-10.02,1.461-15.805,2.353-5.764.918-12.009,1.913-18.621,2.96a10.478,10.478,0,0,0-3.855,1.354,1.344,1.344,0,0,0-.661.865.891.891,0,0,0,.055.431,2.148,2.148,0,0,0,.337.521,7.95,7.95,0,0,0,3.361,1.891l.627.192c.1.023.316.082.489.113.372.082.771.156,1.191.221.833.134,1.722.257,2.624.381,1.818.259,3.718.506,5.695.973a17.355,17.355,0,0,1,3.043.982,8.977,8.977,0,0,1,1.55.872,5.351,5.351,0,0,1,1.322,1.358c.1.162.194.329.284.5l.109.267.062.173.028.1.055.193a3.611,3.611,0,0,1,.083.4,3.768,3.768,0,0,1-.145,1.757,4.122,4.122,0,0,1-1.032,1.6,6.685,6.685,0,0,1-1.489,1.107,19.563,19.563,0,0,1-6.156,1.882c-3.9.612-7.732,1.149-11.658,1.584-1.949.247-3.919.419-5.881.623s-3.932.344-5.9.506c-7.877.6-15.8.768-23.551.913s-15.385.284-22.752.591-14.481.843-21.2,1.326c-3.368.226-6.611.472-9.766.651q-2.385.16-4.676.307l-2.272.129c-.743.043-1.479.091-2.21.134-5.881.381-25.067-.549-23.015-.77,2.066-.2,4.292-.43,6.666-.664,4.765-.446,10.144-.935,16.019-1.381,2.974-.264,6.011-.424,9.193-.608,1.6-.086,3.231-.106,4.876-.166s3.333-.08,5.027-.086c6.79-.075,13.932.106,21.313.026s14.991-.333,22.7-.88,15.488-1.376,23.235-2.246c1.935-.221,3.87-.435,5.8-.693s3.85-.467,5.756-.763c3.815-.537,7.651-1.16,11.322-1.811.888-.171,1.749-.365,2.534-.6a9.742,9.742,0,0,0,2.025-.785c.524-.3.765-.58.833-.811a1,1,0,0,0,.028-.463.76.76,0,0,0-.033-.145l-.022-.074v-.011l-.1-.253c-.02,0-.028-.005-.028-.011a2.98,2.98,0,0,0-1.128-.822,12.5,12.5,0,0,0-2.143-.725c-1.59-.413-3.366-.693-5.165-.982-.909-.146-1.824-.285-2.774-.479-.469-.091-.95-.192-1.454-.326-.261-.066-.475-.13-.805-.227l-.627-.215c-.509-.182-.976-.365-1.426-.569a14.063,14.063,0,0,1-1.315-.688,8.261,8.261,0,0,1-2.3-1.906,4.408,4.408,0,0,1-.757-1.355,3.192,3.192,0,0,1-.1-1.616,4.175,4.175,0,0,1,1.983-2.551,10.437,10.437,0,0,1,2.754-1.2,21.015,21.015,0,0,1,2.734-.586q5.031-.661,9.764-1.289,4.722-.588,9.1-1.145c5.84-.72,11.212-1.3,15.976-1.783,4.773-.463,8.94-.822,12.384-1.042,1.713-.13,3.256-.189,4.593-.264,1.343-.054,2.485-.069,3.415-.1Z" transform="translate(-1780.4 -1052.079)" fill="#1a1c20"/>
                  </g>
                  <g id="Group_239" data-name="Group 239" transform="translate(4.316 18.7)" opacity="0.3">
                    <path id="Path_2539" data-name="Path 2539" d="M2008.047,1058.041c-.055.908-.117,1.805-.18,2.664-2.046.128-4.152.274-6.308.435-7.065.487-14.7,1.117-22.746,1.923-2.01.2-4.049.408-6.1.66-2.058.225-4.138.452-6.238.721-1.049.129-2.1.262-3.162.392s-2.115.289-3.174.439-2.134.291-3.208.44-2.17.329-3.266.489c-2.189.338-4.379.623-6.314,1.1a9.952,9.952,0,0,0-2.424.881,1.652,1.652,0,0,0-.544.45.594.594,0,0,0-.111.437c0,.043.028.108.028.16a.871.871,0,0,1,.034.129c.028.07.09.2.138.3l.09.163a7.744,7.744,0,0,0,.736.951c.6.671,1.294,1.365,2.011,2.068s1.46,1.423,2.176,2.186a17.005,17.005,0,0,1,2.046,2.531,5.838,5.838,0,0,1,.731,1.659,2.422,2.422,0,0,1,.075.51,2.568,2.568,0,0,1-.012.635c-.022.138-.028.16-.043.225l-.019.076s-.042.175-.055.2a4.33,4.33,0,0,1-1.708,2.084,9.93,9.93,0,0,1-1.771.972,30.488,30.488,0,0,1-7.2,1.811,137.912,137.912,0,0,1-14.329,1.155c-4.76.2-9.512.268-14.228.435-2.356.069-4.691.2-7.044.315s-4.7.227-7.026.345c-9.331.435-18.5.924-27.373,1.531s-17.443,1.2-25.583,1.591c-2.039.106-4.041.2-6.025.268s-3.926.151-5.84.22c-3.836.113-7.54.221-11.093.328-7.114.177-13.635.322-19.421.4-2.884.048-5.591.082-8.1.1s-4.8.054-6.879.048l-9.636.028c-1.2.006-1.279-.526-.061-.655,2.217-.2,5.474-.468,9.612-.758s9.167-.628,14.937-.941c5.771-.332,12.278-.644,19.385-.965q5.329-.228,11.08-.468,2.87-.1,5.846-.2c1.977-.075,3.988-.128,6.018-.171,8.154-.216,16.755-.258,25.652-.394q3.338-.056,6.721-.123,3.388-.1,6.818-.192c4.565-.184,9.193-.361,13.849-.651,2.328-.119,4.661-.286,7-.463l7.052-.515c4.718-.311,9.449-.623,14.144-1.021s9.374-.885,13.835-1.7a27.912,27.912,0,0,0,6.137-1.729,3.387,3.387,0,0,0,1.652-1.257.572.572,0,0,0,.048-.1v-.016l.021-.086c.007-.037.021-.1.021-.112h-.007c-.021.047-.007-.1-.055-.221a3.318,3.318,0,0,0-.454-.9,13.894,13.894,0,0,0-1.743-2.047c-.674-.688-1.4-1.37-2.141-2.069s-1.494-1.406-2.23-2.2a11.045,11.045,0,0,1-1.074-1.337l-.185-.307-.076-.145c-.055-.112-.1-.193-.158-.333a4.017,4.017,0,0,1-.3-1.015,3.161,3.161,0,0,1,.468-2.165,5.026,5.026,0,0,1,1.646-1.558,13.387,13.387,0,0,1,3.644-1.456c2.367-.619,4.614-.929,6.77-1.3,1.087-.178,2.168-.361,3.249-.537s2.184-.329,3.272-.478,2.169-.307,3.243-.457,2.141-.273,3.209-.4c4.249-.554,8.435-.978,12.506-1.322,8.146-.736,15.879-1.156,23.007-1.456Q2004.768,1058.135,2008.047,1058.041Z" transform="translate(-1778.012 -1058.041)" fill="#1a1c20"/>
                  </g>
                  <g id="Group_240" data-name="Group 240" transform="translate(190.001 25.844)" opacity="0.3">
                    <path id="Path_2540" data-name="Path 2540" d="M1956.721,1075.487c-.668.032-1.343.07-2.013.1l-3.572.138c-1.192.028-2.383.071-3.568.076-1.192.021-2.376.01-3.568.006s-2.381-.028-3.573-.065l-3.575-.1c-1.2-.043-2.333-.069-3.518-.063-2.362-.011-4.793.011-7.245-.162a35.122,35.122,0,0,1-7.334-1.182,16.983,16.983,0,0,1-3.416-1.37,10.916,10.916,0,0,1-2.747-2.1l-.152-.16v-.195a1.46,1.46,0,0,1,.53-1.032,3.751,3.751,0,0,1,.916-.569,12.926,12.926,0,0,1,1.866-.634c1.247-.333,2.5-.547,3.746-.779,2.493-.445,4.987-.826,7.479-1.251,2.5-.4,4.992-.821,7.492-1.192s5.02-.688,7.54-.913,5.054-.392,7.582-.532c2.217-.129,4.44-.214,6.666-.29-.084,1.01-.159,1.858-.214,2.493q-3.058.313-6.128.579c-2.507.221-5.02.442-7.534.6s-5.042.264-7.568.361-5.054.155-7.568.316c-1.261.076-2.521.171-3.767.3s-2.486.28-3.711.485a31.338,31.338,0,0,0-3.582.773,8.291,8.291,0,0,0-1.583.586,2.385,2.385,0,0,0-.537.376.639.639,0,0,0-.1.139,8.8,8.8,0,0,0,2.348,1.434,14.856,14.856,0,0,0,3.107.883,35.7,35.7,0,0,0,6.775.376c2.307-.05,4.641-.178,7.038-.29l3.622-.124,3.575-.1c1.192-.032,2.382-.054,3.573-.059,1.2.011,2.39.016,3.582.048s2.39.08,3.582.119l3.566.177c.648.032,1.294.074,1.934.117C1956.686,1073.5,1956.707,1074.419,1956.721,1075.487Z" transform="translate(-1912.441 -1063.213)" fill="#1a1c20"/>
                  </g>
                  <g id="Group_241" data-name="Group 241" transform="translate(150.756 45.72)" opacity="0.3">
                    <path id="Path_2541" data-name="Path 2541" d="M1886.185,1088.737c-.324.467-.235.666.09.952a4.674,4.674,0,0,0,1.8.633,26.473,26.473,0,0,0,4.875.312c1.688-.016,3.381-.1,5.088-.215,3.473-.2,6.894-.381,10.31-.532,3.4-.187,6.734-.439,10.048-.655,3.318-.264,6.6-.526,9.833-.779,3.229-.279,6.431-.526,9.524-.757l9.137-.678c5.923-.424,11.563-.794,16.789-1.036q1.674-.072,3.3-.15c-.069.435-.138.844-.214,1.214-.24.559-.468,1.09-.688,1.607l-2.08.193c-2.575.215-5.261.467-8.044.742q-4.183.385-8.636.8c-5.922.537-12.2,1-18.7,1.4-3.25.184-6.562.372-9.909.558-3.375.13-6.8.312-10.226.388l-5.144.064-5.173.033c-1.742.005-3.511-.011-5.3-.108a29.524,29.524,0,0,1-5.42-.7,9.353,9.353,0,0,1-1.384-.457,4.266,4.266,0,0,1-1.336-.816,1.693,1.693,0,0,1-.3-.334l-.137-.192-.062-.119-.057-.119a.462.462,0,0,1-.061-.161l-.028-.1a1.609,1.609,0,0,1-.055-.4,2.073,2.073,0,0,1,.579-1.359,7.477,7.477,0,0,1,2.141-1.558,23.564,23.564,0,0,1,2.343-1.047c1.583-.629,3.188-1.16,4.786-1.655q1.207-.379,2.416-.752c.8-.253,1.592-.526,2.424-.716l2.445-.628c.812-.214,1.625-.435,2.459-.6l2.466-.533c.826-.177,1.638-.376,2.457-.5.82-.145,1.633-.283,2.445-.43l1.211-.219.3-.055c.15-.026.219-.032.33-.053l.62-.085c.819-.113,1.638-.231,2.459-.344s1.631-.236,2.452-.312a139.666,139.666,0,0,1,18.936-.838c6.02.109,11.646.587,16.824.9,2.589.177,5.061.365,7.417.494,1.17.064,2.319.134,3.435.209.854.044,1.7.081,2.513.119-.026.747-.061,1.482-.109,2.2-4.069.054-8.608-.106-13.5-.289-5.187-.247-10.8-.522-16.735-.805-5.909-.264-12.126-.55-18.559-.28-.805.011-1.611.071-2.417.134s-1.618.128-2.431.188l-.612.048-.282.022-.311.037-1.225.16c-.828.113-1.646.221-2.473.334-1.66.2-3.237.569-4.875.865-.819.14-1.611.359-2.417.563s-1.6.42-2.4.625-1.583.472-2.369.724-1.569.517-2.355.774c-1.571.543-3.119,1.112-4.593,1.757a21.18,21.18,0,0,0-2.079,1.069A5.528,5.528,0,0,0,1886.185,1088.737Z" transform="translate(-1884.029 -1077.602)" fill="#1a1c20"/>
                  </g>
                  <g id="Group_242" data-name="Group 242" transform="translate(2.962 52.466)" opacity="0.3">
                    <path id="Path_2542" data-name="Path 2542" d="M2003.757,1095.148a11.271,11.271,0,0,0-.474,2.863l-.971.08c-3.443.269-7.032.543-10.743.833-3.691.312-7.513.629-11.439.963s-7.974.692-12.106,1.052c-2.066.178-4.159.355-6.265.539-2.13.171-4.285.305-6.447.467s-4.353.307-6.557.456l-1.652.113-1.652.069q-1.654.075-3.328.141c-2.216.092-4.455.187-6.7.279l-1.687.07-.9.037-.867.01q-1.737.017-3.463-.015a107.314,107.314,0,0,1-13.9-1.1,46.954,46.954,0,0,1-6.886-1.557,19.568,19.568,0,0,1-3.3-1.348,8.055,8.055,0,0,1-2.761-2.214c-.164-.236-.3-.493-.441-.746a6.143,6.143,0,0,1-.276-.8,6.718,6.718,0,0,1-.088-.811,3.768,3.768,0,0,1,.1-.839,2.781,2.781,0,0,1,.206-.7l.117-.327a.71.71,0,0,1,.056-.134l.04-.086.084-.163c.206-.439.439-.859.661-1.272a9.892,9.892,0,0,0,1.019-2.4,2.225,2.225,0,0,0-.579-2.09c-.164-.138-.309-.3-.489-.43s-.344-.258-.556-.387l-.7-.387-.676-.3a5.6,5.6,0,0,0-.722-.29l-.745-.257c-.522-.14-1.025-.307-1.562-.4a31.466,31.466,0,0,0-6.6-.6c-2.239-.022-4.477.156-6.7.343s-4.463.392-6.666.591c-4.429.377-8.8.805-13.1,1.231q-3.224.321-6.391.638c-2.113.2-4.2.448-6.272.587q-3.11.232-6.151.467-3.046.2-6.011.409c-3.953.236-7.8.466-11.529.649s-7.312.339-10.763.5c-6.9.279-13.229.521-18.841.692-2.81.135-5.44.242-7.871.334s-4.662.181-6.682.242c-2.512.086-4.695.145-6.506.2.02-.3.035-.6.054-.908,1.764-.188,3.879-.407,6.3-.649,2-.21,4.221-.42,6.639-.645s5.028-.472,7.824-.71c5.6-.435,11.926-.837,18.834-1.289,6.914-.4,14.379-.876,22.283-1.235q2.965-.12,6.013-.247,3.048-.1,6.164-.2c4.159-.123,8.394-.359,12.7-.537,4.318-.2,8.705-.4,13.139-.671,1.109-.059,2.217-.124,3.333-.188,1.116-.093,2.232-.177,3.354-.269,2.253-.171,4.532-.294,6.832-.311a34.469,34.469,0,0,1,6.948.574c.578.1,1.137.264,1.707.4.283.086.558.177.834.268a6.773,6.773,0,0,1,.82.3c.282.119.51.2.833.355l.717.37c.24.134.5.322.75.484s.447.371.668.558a3.387,3.387,0,0,1,1.046,2.988,10.53,10.53,0,0,1-.969,2.75c-.194.424-.387.842-.545,1.251l-.1.253-.1.333a2.187,2.187,0,0,0-.131.612,2.665,2.665,0,0,0,.09,1.032c.076.167.125.339.207.494.118.156.206.317.323.467a6.265,6.265,0,0,0,2.169,1.5,17.274,17.274,0,0,0,2.9,1.021,45.465,45.465,0,0,0,6.467,1.129c2.21.253,4.448.4,6.692.493s4.484.141,6.716.129q1.672-.007,3.325-.058l.827-.028.8-.048,1.679-.1q3.367-.209,6.694-.414c1.109-.069,2.218-.134,3.319-.2l1.654-.1,1.625-.14q3.255-.28,6.458-.554l12.617-1.09q3.11-.274,6.136-.537c2.017-.166,4.035-.289,6.019-.435s3.932-.279,5.86-.413c1.908-.13,3.829-.289,5.687-.366q5.59-.28,10.772-.536Z" transform="translate(-1777.032 -1082.486)" fill="#1a1c20"/>
                  </g>
                  <g id="Group_243" data-name="Group 243" transform="translate(0 62.51)" opacity="0.3">
                    <path id="Path_2543" data-name="Path 2543" d="M2007.806,1100.843c-4.635.5-9.291.971-13.932,1.443-2.976.329-5.971.565-8.959.829l-8.973.772-9.014.559-4.5.279-4.537.145-9.077.28c-3.01.048-6-.006-9.007,0l-4.5-.016c-.765-.005-1.467,0-2.281-.017l-2.229-.031c-2.989-.033-6-.037-9-.091-6.011-.087-12.037-.269-18.07-.641-1.507-.1-3.015-.208-4.531-.369a35.044,35.044,0,0,1-4.586-.721l-.661-.2c-.109-.037-.173-.069-.263-.106l-.123-.054-.055-.028a.44.44,0,0,1-.123-.054,4.109,4.109,0,0,1-1.021-.763,3.778,3.778,0,0,1-.907-1.906,11.9,11.9,0,0,1,.088-3.643,8.722,8.722,0,0,0,.021-3.332,2.47,2.47,0,0,0-.137-.337l-.077-.134-.143-.189c-.056-.047-.18-.177-.277-.258a4.074,4.074,0,0,0-.351-.253,6.533,6.533,0,0,0-1.79-.718,18.47,18.47,0,0,0-4.256-.5c-1.467-.039-2.948.009-4.427.091s-2.961.24-4.449.387c-.75.069-1.487.144-2.26.209l-2.25.167-8.959.708c-5.973.489-11.948.984-17.927,1.4s-11.969.768-17.96,1.041l-8.985.42c-3.011.1-5.964.294-8.947.456-2.982.184-5.958.281-8.945.478-2.989.232-5.984.435-8.973.628l-15.556,3.463v-1.713c.028-.006,15.261-3.441,15.287-3.448,2.97-.37,5.937-.736,8.9-1.073s5.985-.571,8.98-.823,6.02-.526,9-.7l8.98-.536q8.976-.552,17.972-.877c6-.215,12-.359,18.008-.51l9-.253c.75-.022,1.508-.043,2.245-.075l2.224-.141c1.494-.1,3-.188,4.518-.257s3.029-.108,4.565-.048a22.479,22.479,0,0,1,4.606.574,7.92,7.92,0,0,1,2.191.876,4.355,4.355,0,0,1,.922.751l.151.188.165.264a3.035,3.035,0,0,1,.206.494,5.6,5.6,0,0,1,.214,1.88c-.006.606-.062,1.2-.111,1.783a11.729,11.729,0,0,0,.035,3.362,2.6,2.6,0,0,0,.7,1.333,3.036,3.036,0,0,0,.591.415l.034.01.064.022.13.048c.083.031.178.075.242.091.137.028.268.058.4.1a31.663,31.663,0,0,0,4.278.484c1.467.08,2.953.123,4.441.151,5.957.1,11.948-.074,17.939-.189l9.008-.183,4.49-.052,4.5-.076c3-.058,6.006-.074,8.994-.177l8.911-.414,4.456-.21,4.469-.283,8.931-.571,31.672-2.289h.028S2007.495,1099.235,2007.806,1100.843Z" transform="translate(-1774.888 -1089.757)" fill="#1a1c20"/>
                  </g>
                  <g id="Group_244" data-name="Group 244" transform="translate(0.66 72.278)" opacity="0.3">
                    <path id="Path_2544" data-name="Path 2544" d="M1944.62,1111.436s-.7.074-2.032.21c-1.239.118-3.022.283-5.282.488-14.668-.043-35.189-.106-48.845-.151-1.115,0-2.182,0-3.2-.01a10.3,10.3,0,0,1-2.623-1.941c-.124-.128-.256-.251-.373-.385l-.344-.435-.33-.435-.219-.36-.228-.361-.09-.155-.048-.1-.1-.188-.4-.753c-.53-.989-1.026-1.955-1.6-2.842a13.041,13.041,0,0,0-.9-1.24c-.082-.1-.137-.189-.233-.29l-.316-.329-.311-.328-.233-.2a8.044,8.044,0,0,0-2.8-1.537,17.75,17.75,0,0,0-3.651-.816c-1.3-.167-2.671-.258-4.035-.3-1.412-.037-2.817-.022-4.235-.037h-4.263c-1.419.015-2.83.032-4.249.054l-4.228.1c-1.412.054-2.809.113-4.207.167-5.584.214-11.06.67-16.356,1.175s-10.4,1.058-15.259,1.4c-4.842.4-9.47.548-13.67.843-2.108.128-4.126.189-6.061.334-1.92.149-3.808.247-5.467.354-3.471.291-6.481.463-8.931.645-1.213.1-2.3.2-3.258.268-.254.022-.5.048-.729.081-.048-.3-.1-.6-.131-.892.173-.043.359-.091.553-.134.942-.21,2.037-.419,3.263-.666s2.583-.446,4.064-.688,3.05-.489,4.752-.736c1.776-.225,3.539-.471,5.481-.692,1.914-.221,3.974-.392,6.1-.6,4.29-.361,8.87-.721,13.759-.941s10.048-.253,15.391-.3c2.666-.021,5.379-.048,8.119-.134,2.742-.059,5.517-.161,8.306-.305s5.605-.312,8.428-.49l8.5-.612c1.413-.1,2.846-.221,4.276-.29a42.9,42.9,0,0,1,4.456-.011,21.833,21.833,0,0,1,4.559.73,12.089,12.089,0,0,1,4.166,2.049l.221.177.109.086.056.043.1.091.337.311.332.318c.116.106.233.258.351.381a17.991,17.991,0,0,1,1.247,1.542c.729,1.021,1.314,2.036,1.885,3l.427.716.11.177.042.08.008.011.019.021.242.355.24.35.207.236.2.236.249.236a6.981,6.981,0,0,0,2.417,1.488,24.159,24.159,0,0,0,6.79,1.069q.928.05,1.858.082c.62.015,1.234.032,1.845.048,1.254.032,2.493.069,3.712.1,2.41.033,4.753.059,7.018.093,2.286-.005,4.49.021,6.611-.011,4.256-.022,8.161-.037,11.617-.054s6.494.006,8.987.043c2.493.022,4.456.1,5.792.145s2.046.08,2.046.08Z" transform="translate(-1775.366 -1096.829)" fill="#1a1c20"/>
                  </g>
                </g>
                <path id="Path_2545" data-name="Path 2545" d="M1993.273,1112.245l-1.759.113c-1.141.086-2.813.222-4.939.417-1.058.108-2.232.226-3.511.354l-4.123.461c-2.938.351-6.249.756-9.847,1.247-3.6.464-7.483,1.061-11.564,1.8-2.042.364-4.141.735-6.286,1.116-2.149.366-4.354.7-6.6,1.017-2.25.3-4.548.544-6.879.786-2.333.211-4.7.409-7.079.561-4.774.3-9.619.514-14.444.807-2.412.13-4.824.282-7.224.366q-1.8.079-3.593.162l-3.568.117-3.539.14c-1.17.023-2.337.07-3.5.1s-2.332.1-3.438.111c-1.173.023-2.261.016-3.355.013-2.206-.02-4.354-.115-6.423-.3s-4.071-.45-6.027-.754-3.874-.652-5.781-.945-3.79-.519-5.619-.673a88.09,88.09,0,0,0-10.042-.246c-2.991.078-5.587.257-7.717.43s-3.8.34-4.935.467l-1.74.193.027.313,1.743-.065c1.137-.047,2.8-.109,4.915-.153,2.115-.059,4.676-.071,7.587-.019a95.135,95.135,0,0,1,9.593.659c1.72.214,3.47.506,5.282.843s3.687.746,5.673,1.126a80.87,80.87,0,0,0,13.087,1.432c1.171.036,2.369.051,3.5.048,1.2,0,2.343-.01,3.529-.027s2.366-.027,3.558-.059,2.392-.092,3.594-.151c2.409-.092,4.833-.272,7.263-.445s4.865-.4,7.3-.608,4.857-.5,7.271-.786,4.8-.646,7.175-.959c2.373-.336,4.724-.66,7.049-.946s4.623-.583,6.89-.819c4.528-.5,8.944-.829,13.118-1.2s8.1-.873,11.687-1.434c3.593-.54,6.875-1.089,9.776-1.593l4.056-.735,3.431-.664c2.067-.419,3.692-.757,4.794-1l1.689-.39Z" transform="translate(-1681.605 -1018.673)" fill="#1a1c20" opacity="0.3"/>
                <path id="Path_2546" data-name="Path 2546" d="M1725.257,1123.825s1.29.05,3.71.146c2.42.081,5.969.2,10.484.356l16.28.525c6.288.2,13.385.381,21.133.551l12.093.178c4.179.044,8.506.04,12.951,0,8.894-.092,18.272-.494,27.952-1.05,9.675-.594,19.659-1.3,29.767-2.271,5.043-.464,10.147-.911,15.256-1.471s10.238-1.195,15.326-2.181a42.939,42.939,0,0,0,7.571-2.065,10.994,10.994,0,0,0,1.844-.948,3.728,3.728,0,0,0,1.533-1.718,2.03,2.03,0,0,0,.047-1.265,2.881,2.881,0,0,0-.583-1.047,6.738,6.738,0,0,0-1.664-1.342,25.391,25.391,0,0,0-7.456-2.7c-2.569-.558-5.144-.92-7.7-1.218-5.118-.572-10.107-.913-15.088-1.354-4.924-.407-9.958-.667-14.792-.869-9.713-.354-19.1-.435-28-.348-8.848.04-17.294.113-25.076.484a175.215,175.215,0,0,0-21.157,2.11,76.742,76.742,0,0,0-8.589,1.982,37.019,37.019,0,0,0-6.755,2.765,30.705,30.705,0,0,0-7.9,5.484,7.51,7.51,0,0,0-1.381,1.916,3,3,0,0,0-.214.543c-.04.124-.061.185-.061.185l.372.065s.023-.057.072-.17a2.829,2.829,0,0,1,.243-.495,7.465,7.465,0,0,1,1.466-1.744,32.488,32.488,0,0,1,8.056-4.978c3.788-1.805,9.006-3.016,15.128-3.805,3.06-.41,6.355-.7,9.842-.909s7.166-.356,11.011-.43,7.861-.1,12.023-.068l12.922.1c8.853.058,18.188.141,27.821.409,4.839.132,9.636.306,14.63.644,4.929.363,10,.638,14.954,1.119,2.482.242,4.95.535,7.325,1a23.417,23.417,0,0,1,6.527,2.115,4.5,4.5,0,0,1,1.057.76c.225.261.261.377.232.525a1.558,1.558,0,0,1-.63.713,8,8,0,0,1-1.333.757,39.432,39.432,0,0,1-6.89,2.17,239.018,239.018,0,0,1-30.14,4.387c-10.066,1.023-20.051,1.54-29.716,1.649-9.666.167-19.009.037-27.867.012l-24.979-.124c-7.742-.025-14.843-.059-21.142-.019-3.148,0-6.1.027-8.821.072s-5.231.058-7.493.122c-4.525.088-8.075.21-10.5.305s-3.71.156-3.71.156Z" transform="translate(-1725.257 -1021.932)" fill="#1a1c20" opacity="0.3"/>
                <path id="Path_2547" data-name="Path 2547" d="M1768.711,1114.034l1.5.43c.489.138,1.093.305,1.8.5.722.177,1.558.376,2.5.584s1.985.43,3.129.641,2.381.435,3.712.646,2.754.4,4.255.6c1.5.214,3.087.355,4.742.528,1.656.154,3.382.319,5.173.438s3.642.232,5.548.316c3.807.2,7.833.216,11.991.1s8.444-.362,12.794-.57c1.087-.063,2.175-.094,3.272-.148l3.3-.174,3.312-.168,3.324-.2c2.217-.157,4.441-.312,6.667-.584a32.712,32.712,0,0,0,6.66-1.407,15.931,15.931,0,0,0,1.605-.692,6.358,6.358,0,0,0,1.6-1.093,2.442,2.442,0,0,0,.652-1.084,1.837,1.837,0,0,0-.271-1.466,4.343,4.343,0,0,0-1.847-1.392,17.84,17.84,0,0,0-3.368-1.032c-1.083-.239-2.145-.422-3.195-.587-2.108-.32-4.126-.546-6.139-.754-1.953-.21-3.952-.35-5.881-.464-3.843-.2-7.491-.2-10.846-.077-3.356.1-6.419.352-9.115.633s-5.026.627-6.932.93-3.391.587-4.4.78l-1.548.308.05.308,1.6,0c1.038-.015,2.559-.037,4.5-.068s4.267-.079,6.937-.089,5.67.022,8.935.1c3.267.1,6.792.249,10.516.488,1.848.121,3.737.24,5.737.4,1.948.13,3.967.3,5.941.51.989.112,1.978.237,2.933.4a15.429,15.429,0,0,1,2.591.637c.343.112.589.3.531.231a.35.35,0,0,1-.017-.251c.031-.065.033-.028-.017.048a3.024,3.024,0,0,1-.757.623,12.184,12.184,0,0,1-1.162.642,27.877,27.877,0,0,1-5.73,1.867,56.547,56.547,0,0,1-6.379,1.083c-1.08.133-2.173.232-3.265.305s-2.183.145-3.275.178c-2.184.071-4.367.005-6.539-.02-4.34-.091-8.605-.338-12.722-.53s-8.09-.362-11.857-.477c-3.768-.1-7.321-.283-10.6-.428-3.275-.189-6.286-.327-8.941-.553-1.333-.083-2.578-.177-3.723-.291s-2.214-.173-3.156-.286-1.8-.184-2.543-.253c-.745-.093-1.379-.17-1.891-.232l-1.579-.178Z" transform="translate(-1708.688 -1020.733)" fill="#1a1c20" opacity="0.3"/>
                <path id="Path_2548" data-name="Path 2548" d="M1854.172,1122.282l.085-.3-1.5-.42c-.981-.265-2.428-.655-4.285-1.1s-4.138-.953-6.795-1.43c-1.961-.355-4.116-.71-6.457-1.008-10.488.406-18.27.706-19.355.74a1.815,1.815,0,0,0-1.881,1.529c.684,0,1.367,0,2.041,0,2.007-.006,3.9.018,5.762.028,3.738.04,7.263.148,10.528.289,3.257.163,6.256.349,8.905.56s4.982.42,6.893.6c1.927.171,3.44.311,4.473.4S1854.172,1122.282,1854.172,1122.282Z" transform="translate(-1691.427 -1016.471)" fill="#1a1c20" opacity="0.3"/>
              </g>
              <g id="Group_253" data-name="Group 253" transform="translate(68.57 0.746)" opacity="0.5">
                <g id="Group_252" data-name="Group 252">
                  <g id="Group_247" data-name="Group 247" opacity="0.3">
                    <path id="Path_2549" data-name="Path 2549" d="M1803.055,1060.6c-.612.12-1.224.236-1.829.351-1.49.279-2.946.571-4.38.818-1.442.229-2.855.454-4.234.608-1.379.177-2.721.28-4.022.375s-2.574.175-3.776.24c-2.411.127-4.641.2-6.6.247-.978.033-1.906.044-2.757.05-.189,0-.387,0-.562.005v-.269l.289-.05c.829-.142,1.743-.29,2.721-.427,1.955-.3,4.141-.576,6.539-.84s5-.526,7.757-.7c1.37-.1,2.792-.133,4.246-.175s2.939-.088,4.452-.138Q1801.978,1060.672,1803.055,1060.6Z" transform="translate(-1774.899 -1038.361)" fill="#ce7b23"/>
                    <path id="Path_2550" data-name="Path 2550" d="M1820.735,1052.943a4.9,4.9,0,0,0-1.09-1.979,12.862,12.862,0,0,0-2.271-2.091c-.191-.148-.387-.29-.57-.438l-.745-.467a14.2,14.2,0,0,0-1.414-.844q-.663-.363-1.308-.709c-.471-.214-.942-.421-1.385-.63-.92-.406-1.827-.757-2.678-1.093-.191-.059-.373-.126-.555-.192,1.174.005,2.369.011,3.6.011.33.153.676.308,1.02.461q.645.346,1.308.707a13.931,13.931,0,0,1,1.414.846l.745.465c.183.149.38.292.57.439a12.892,12.892,0,0,1,2.271,2.09,4.6,4.6,0,0,1,1.146,2.287A2.963,2.963,0,0,1,1820.735,1052.943Z" transform="translate(-1762.004 -1044.501)" fill="#ce7b23"/>
                  </g>
                  <g id="Group_248" data-name="Group 248" transform="translate(189.986 25.847)" opacity="0.3">
                    <path id="Path_2551" data-name="Path 2551" d="M1956.721,1075.487c-.668.032-1.343.07-2.013.1l-3.572.138c-1.192.028-2.383.071-3.568.076-1.192.021-2.376.01-3.568.006s-2.381-.028-3.573-.065l-3.575-.1c-1.2-.043-2.333-.069-3.518-.063-2.362-.011-4.793.011-7.245-.162a35.122,35.122,0,0,1-7.334-1.182,16.983,16.983,0,0,1-3.416-1.37,10.916,10.916,0,0,1-2.747-2.1l-.152-.16v-.195a1.46,1.46,0,0,1,.53-1.032,3.751,3.751,0,0,1,.916-.569,12.926,12.926,0,0,1,1.866-.634c1.247-.333,2.5-.547,3.746-.779,2.493-.445,4.987-.826,7.479-1.251,2.5-.4,4.992-.821,7.492-1.192s5.02-.688,7.54-.913,5.054-.392,7.582-.532c2.217-.129,4.44-.214,6.666-.29-.084,1.01-.159,1.858-.214,2.493q-3.058.313-6.128.579c-2.507.221-5.02.442-7.534.6s-5.042.264-7.568.361-5.054.155-7.568.316c-1.261.076-2.521.171-3.767.3s-2.486.28-3.711.485a31.338,31.338,0,0,0-3.582.773,8.291,8.291,0,0,0-1.583.586,2.385,2.385,0,0,0-.537.376.639.639,0,0,0-.1.139,8.8,8.8,0,0,0,2.348,1.434,14.856,14.856,0,0,0,3.107.883,35.7,35.7,0,0,0,6.775.376c2.307-.05,4.641-.178,7.038-.29l3.622-.124,3.575-.1c1.192-.032,2.382-.054,3.573-.059,1.2.011,2.39.016,3.582.048s2.39.08,3.582.119l3.566.177c.648.032,1.294.074,1.934.117C1956.686,1073.5,1956.707,1074.419,1956.721,1075.487Z" transform="translate(-1912.441 -1063.213)" fill="#ce7b23"/>
                  </g>
                  <g id="Group_249" data-name="Group 249" transform="translate(180.885 45.725)" opacity="0.3">
                    <path id="Path_2552" data-name="Path 2552" d="M1959.1,1079.362c-.007.251-.028.5-.043.757-4.071.054-8.607-.111-13.508-.291-5.183-.247-10.795-.521-16.729-.807-5.914-.262-12.13-.548-18.558-.279-.81.011-1.617.07-2.418.137-.662.05-1.33.105-2,.153.576-.082,1.16-.165,1.743-.24.816-.121,1.632-.236,2.448-.313a140.164,140.164,0,0,1,18.937-.839c6.018.109,11.645.587,16.827.9,2.589.176,5.056.362,7.412.493,1.174.061,2.321.133,3.438.208C1957.487,1079.29,1958.31,1079.329,1959.1,1079.362Z" transform="translate(-1905.852 -1077.604)" fill="#ce7b23"/>
                  </g>
                  <g id="Group_250" data-name="Group 250" transform="translate(128.877 57.543)" opacity="0.3">
                    <path id="Path_2553" data-name="Path 2553" d="M1870.07,1087.382a10.829,10.829,0,0,1-.971,2.749c-.2.428-.387.845-.548,1.25l-.1.253-.091.334c-.015.055-.029.116-.05.176a3.734,3.734,0,0,1-.091-.5,2.9,2.9,0,0,1,.007-.5,2.053,2.053,0,0,1,.134-.615l.091-.334.1-.253c.162-.406.352-.823.548-1.25a11.63,11.63,0,0,0,.928-2.529A3.009,3.009,0,0,1,1870.07,1087.382Z" transform="translate(-1868.2 -1086.16)" fill="#ce7b23"/>
                  </g>
                  <g id="Group_251" data-name="Group 251" transform="translate(117.91 66.765)" opacity="0.3">
                    <path id="Path_2554" data-name="Path 2554" d="M1860.284,1096.565a16.9,16.9,0,0,1,.084-2.583c.036-.378.064-.762.084-1.146Z" transform="translate(-1860.261 -1092.836)" fill="#ce7b23"/>
                  </g>
                </g>
                <path id="Path_2555" data-name="Path 2555" d="M1910.759,1119.054c3.622-.22,7.257-.4,10.857-.6-1.138.153-2.285.307-3.431.449-2.412.286-4.83.582-7.271.785s-4.867.445-7.3.609-4.852.351-7.264.445c-1.2.059-2.4.109-3.594.153-1.188.028-2.376.038-3.558.061s-2.334.026-3.529.021c-1.133.005-2.328-.01-3.495-.043a81.583,81.583,0,0,1-13.095-1.432c-1.982-.384-3.853-.79-5.667-1.13s-3.565-.625-5.281-.838q-2.068-.257-4.029-.4c1.477.043,3.017.12,4.6.257,1.829.153,3.713.373,5.619.675s3.825.636,5.781.944,3.952.57,6.026.751,4.212.279,6.42.3c1.1,0,2.18.011,3.354-.016,1.11-.006,2.292-.082,3.438-.109s2.327-.083,3.5-.1c1.174-.048,2.355-.093,3.536-.137s2.377-.081,3.565-.12c1.2-.055,2.391-.11,3.594-.159C1905.936,1119.333,1908.348,1119.185,1910.759,1119.054Z" transform="translate(-1744.699 -1016.804)" fill="#ce7b23" opacity="0.3"/>
                <path id="Path_2556" data-name="Path 2556" d="M1951.454,1112.875c-1.2.218-2.5.449-3.874.7-2.905.5-6.188,1.053-9.781,1.59-3.587.566-7.51,1.054-11.687,1.438l-3.017.264c.892-.16,1.779-.319,2.651-.473,4.086-.74,7.96-1.333,11.567-1.8,3.594-.493,6.906-.894,9.846-1.244,1.469-.164,2.847-.318,4.12-.461Z" transform="translate(-1718.393 -1018.43)" fill="#ce7b23" opacity="0.3"/>
                <path id="Path_2557" data-name="Path 2557" d="M1822.752,1106.368c-5.513-.154-10.928-.247-16.208-.308q1.793-.114,3.727-.176c3.354-.125,7-.125,10.85.078,1.927.109,3.924.253,5.879.46.373.039.746.078,1.119.122C1826.325,1106.472,1824.538,1106.417,1822.752,1106.368Z" transform="translate(-1762.833 -1021.128)" fill="#ce7b23" opacity="0.3"/>
                <path id="Path_2558" data-name="Path 2558" d="M1852.733,1114.4c-2.4.33-4.8.609-7.2.867-5.113.56-10.219,1-15.26,1.47-9.5.91-18.9,1.591-28.029,2.162Z" transform="translate(-1764.473 -1017.849)" fill="#ce7b23" opacity="0.3"/>
                <path id="Path_2559" data-name="Path 2559" d="M1842.907,1120.286l-16.208-2.123c1.174-.043,2.4-.093,3.67-.142,2.342.3,4.493.653,6.456,1.01C1839.152,1119.448,1841.184,1119.891,1842.907,1120.286Z" transform="translate(-1755.148 -1016.468)" fill="#ce7b23" opacity="0.3"/>
              </g>
              <g id="Group_264" data-name="Group 264" transform="translate(0.002)" opacity="0.5">
                <g id="Group_263" data-name="Group 263" transform="translate(68.555)">
                  <g id="Group_254" data-name="Group 254" transform="translate(0.014 22.99)" opacity="0.3">
                    <path id="Path_2560" data-name="Path 2560" d="M1803.055,1060.6c-.612.12-1.224.236-1.829.351-1.49.279-2.946.571-4.38.818-1.442.229-2.855.454-4.234.608-1.379.177-2.721.28-4.022.375s-2.574.175-3.776.24c-2.411.127-4.641.2-6.6.247-.978.033-1.906.044-2.757.05-.189,0-.387,0-.562.005v-.269l.289-.05c.829-.142,1.743-.29,2.721-.427,1.955-.3,4.141-.576,6.539-.84s5-.526,7.757-.7c1.37-.1,2.792-.133,4.246-.175s2.939-.088,4.452-.138Q1801.978,1060.672,1803.055,1060.6Z" transform="translate(-1774.899 -1060.605)" fill="#ce7b23"/>
                  </g>
                  <g id="Group_255" data-name="Group 255" transform="translate(0.007)" opacity="0.3">
                    <path id="Path_2561" data-name="Path 2561" d="M1884.269,1060.045a2.25,2.25,0,0,1,.2,1.158l-.028.087c.007,0,.007-.011.021-.011-.007.011-.021.022-.034.044l-.009.005a.147.147,0,0,1-.034.028l-.07.066a5.912,5.912,0,0,1-.7.515,11.77,11.77,0,0,1-1.772.888,40.034,40.034,0,0,1-8.93,2.1c-1.885.269-3.79.472-5.7.642-4.571.131-9.084.131-13.509.488q-4.819.3-9.528.742-2.963.246-5.872.5-1.792.042-3.558.072c-6.125.12-12.067.1-17.671.334q-4.208.147-8.163.4-.992.05-1.963.115c-.654.05-1.3.105-1.941.154-1.279.1-2.532.2-3.762.3-4.908.477-9.338.988-13.255,1.486q-2.953.33-5.52.648c-.43.048-.837.1-1.245.153s-.8.076-1.182.12c-.491.055-.977.105-1.448.148-.225,0-.443,0-.662.005q-1.666,0-3.038.017l-.007-1.075c.885-.11,1.864-.214,2.926-.313.71-.065,1.455-.142,2.228-.224.38-.044.774-.077,1.182-.122s.815-.1,1.245-.153q2.563-.321,5.52-.648c3.917-.5,8.347-1.008,13.255-1.486q1.846-.156,3.762-.3c.64-.05,1.287-.1,1.941-.153s1.3-.083,1.963-.116q3.955-.247,8.163-.4c5.6-.229,11.546-.214,17.671-.334,3.06-.055,6.174-.109,9.318-.253s6.322-.351,9.514-.6c1.582-.127,3.22-.253,4.844-.352s3.235-.192,4.859-.3c3.235-.219,6.47-.493,9.635-.944a40.182,40.182,0,0,0,8.93-2.1,11.922,11.922,0,0,0,1.772-.888,6.249,6.249,0,0,0,.64-.466C1884.262,1060.034,1884.269,1060.04,1884.269,1060.045Z" transform="translate(-1774.894 -1037.834)" fill="#ce7b23"/>
                    <path id="Path_2562" data-name="Path 2562" d="M1895.082,1043.961q-2.8.413-5.815.879c-1.406.214-2.848.432-4.318.669-4.36.05-8.53.094-12.418.142-2.652.467-5.366,1-8.115,1.68-1.442.356-2.9.757-4.353,1.228a36.322,36.322,0,0,0-4.368,1.673,14.47,14.47,0,0,0-4.134,2.7,5.557,5.557,0,0,0-1.415,2.243c-.028.116-.055.219-.084.33a3.091,3.091,0,0,1-.07-.379l-.007-.116c0-.059-.006-.043-.006-.153l.006-.115a2.19,2.19,0,0,1,.022-.33,4.846,4.846,0,0,1,.14-.68,5.556,5.556,0,0,1,1.415-2.243,14.406,14.406,0,0,1,4.134-2.7,35.814,35.814,0,0,1,4.368-1.673c1.454-.473,2.91-.873,4.353-1.229,2.749-.68,5.463-1.211,8.115-1.678C1879.352,1044.125,1887.051,1044.038,1895.082,1043.961Z" transform="translate(-1746.265 -1043.961)" fill="#ce7b23"/>
                  </g>
                  <g id="Group_256" data-name="Group 256" transform="translate(7.611 9.77)" opacity="0.3">
                    <path id="Path_2563" data-name="Path 2563" d="M1917.843,1067.448c-.062.231-.309.511-.829.812a9.74,9.74,0,0,1-2.025.784c-.781.231-1.647.423-2.532.593-3.672.654-7.51,1.278-11.321,1.81-1.906.3-3.84.516-5.76.762s-3.861.478-5.794.7c-7.474.833-14.97,1.634-22.41,2.182-.247,0-.486.005-.725.011-7.756.138-15.386.286-22.748.587-2.327.1-4.634.22-6.9.356-4.965-.021-9.8-.093-14.458-.037-1.695.006-3.368.021-5.028.082-1.645.061-3.276.083-4.873.17-3.185.181-6.223.34-9.2.6-5.14.4-9.9.818-14.2,1.213h-.007c-5.246-.208-9.494-.494-8.474-.6,2.068-.209,4.3-.434,6.666-.67,4.768-.443,10.147-.933,16.019-1.381,2.975-.264,6.013-.423,9.2-.6,1.6-.089,3.228-.111,4.873-.17,1.66-.061,3.333-.077,5.028-.083,6.786-.076,13.93.1,21.315.028,7.369-.078,14.991-.334,22.692-.883s15.491-1.377,23.24-2.245c1.934-.218,3.868-.438,5.794-.7s3.854-.467,5.76-.763c3.811-.532,7.649-1.157,11.321-1.811.885-.17,1.751-.362,2.532-.591a9.828,9.828,0,0,0,2.025-.785,2.675,2.675,0,0,0,.59-.439.972.972,0,0,1,.086.109c0,.006.007.011.028.011l.1.258v.006l.021.077c.015.054.029.1.036.142A1.073,1.073,0,0,1,1917.843,1067.448Z" transform="translate(-1780.399 -1045.183)" fill="#ce7b23"/>
                    <path id="Path_2564" data-name="Path 2564" d="M1930.867,1051.051v.323l-2.805.144c-1.829.153-4.516.373-7.911.762-3.228.356-7.089.877-11.491,1.5l-1.019.1c-4.768.484-10.14,1.065-15.977,1.783-2.911.362-5.948.751-9.1,1.141q-4.726.634-9.76,1.289a21.619,21.619,0,0,0-2.736.587,10.527,10.527,0,0,0-2.755,1.2,4.23,4.23,0,0,0-1.956,2.435,3.244,3.244,0,0,1-.027-1.327,4.16,4.16,0,0,1,1.984-2.551,10.483,10.483,0,0,1,2.755-1.2,21.558,21.558,0,0,1,2.736-.587q5.03-.659,9.76-1.29c3.151-.389,6.188-.779,9.1-1.141,5.837-.718,11.209-1.3,15.977-1.782,4.775-.467,8.937-.823,12.383-1.043,1.709-.131,3.256-.192,4.591-.262,1.344-.055,2.482-.072,3.417-.1Z" transform="translate(-1748.037 -1051.034)" fill="#ce7b23"/>
                  </g>
                  <g id="Group_257" data-name="Group 257" transform="translate(4.316 18.004)" opacity="0.3">
                    <path id="Path_2565" data-name="Path 2565" d="M1948.7,1074.141h.007a1.085,1.085,0,0,1-.022.11l-.014.087v.017a.612.612,0,0,1-.048.1,3.466,3.466,0,0,1-1.654,1.255,27.866,27.866,0,0,1-6.139,1.728c-4.459.818-9.148,1.305-13.832,1.7-3.6.308-7.222.559-10.836.807-1.069.028-2.138.061-3.2.1-2.356.071-4.691.2-7.046.318s-4.7.225-7.025.345c-8.39.39-16.644.824-24.662,1.35l-2.812.049c-8.9.137-17.5.176-25.653.4-2.032.037-4.043.092-6.02.17s-3.93.131-5.843.2q-5.75.238-11.082.466c-7.109.325-13.614.636-19.388.971-5.4.286-10.154.609-14.135.884h-.717c-4.141,0-7.412.015-9.633.026-1.2.006-1.281-.526-.064-.657,2.221-.2,5.479-.467,9.612-.757s9.171-.631,14.936-.938c5.774-.336,12.278-.648,19.388-.971q5.327-.222,11.082-.467l5.843-.2c1.976-.076,3.988-.131,6.02-.17,8.151-.22,16.758-.257,25.653-.4q3.332-.058,6.723-.126,3.386-.091,6.814-.192c4.564-.181,9.191-.356,13.853-.648,2.327-.12,4.655-.284,6.989-.46s4.7-.345,7.053-.522c4.718-.307,9.451-.619,14.148-1.02s9.374-.884,13.832-1.7a27.893,27.893,0,0,0,6.139-1.728,4.926,4.926,0,0,0,1.421-.927,2.932,2.932,0,0,1,.26.582C1948.7,1074.037,1948.688,1074.19,1948.7,1074.141Z" transform="translate(-1778.013 -1050.762)" fill="#ce7b23"/>
                    <path id="Path_2566" data-name="Path 2566" d="M1963.261,1056.995c-.028.488-.062.971-.091,1.442-2.151.066-4.38.144-6.659.236-7.123.3-14.859.718-23,1.455-4.072.34-8.263.766-12.51,1.322-1.069.126-2.137.262-3.206.4-1.076.154-2.159.3-3.242.456s-2.187.307-3.276.483-2.159.357-3.249.537c-2.152.368-4.4.68-6.772,1.294a13.6,13.6,0,0,0-3.643,1.459,4.967,4.967,0,0,0-1.645,1.558,3.032,3.032,0,0,0-.416.977c-.02-.087-.034-.17-.048-.253a3.149,3.149,0,0,1,.464-2.166,4.952,4.952,0,0,1,1.645-1.558,13.6,13.6,0,0,1,3.643-1.459c2.37-.615,4.621-.928,6.772-1.3q1.635-.272,3.249-.537c1.09-.175,2.187-.329,3.276-.482s2.166-.3,3.242-.456c1.069-.137,2.137-.275,3.206-.4,4.247-.554,8.438-.982,12.51-1.322,8.143-.735,15.878-1.158,23-1.453C1958.824,1057.137,1961.081,1057.061,1963.261,1056.995Z" transform="translate(-1733.229 -1056.995)" fill="#ce7b23"/>
                  </g>
                  <g id="Group_258" data-name="Group 258" transform="translate(190 25.15)" opacity="0.3">
                    <path id="Path_2567" data-name="Path 2567" d="M1956.721,1074.443c-.668.032-1.343.07-2.013.1l-3.572.139c-1.192.026-2.383.069-3.568.075-1.192.022-2.376.011-3.568.005s-2.381-.026-3.573-.063l-3.575-.1c-1.2-.043-2.333-.07-3.518-.065-2.362-.01-4.793.011-7.245-.161a35.128,35.128,0,0,1-7.334-1.181,17.092,17.092,0,0,1-3.416-1.37,10.913,10.913,0,0,1-2.747-2.1l-.152-.162v-.193a1.459,1.459,0,0,1,.53-1.032,3.748,3.748,0,0,1,.916-.569,12.752,12.752,0,0,1,1.866-.634c1.247-.333,2.5-.547,3.746-.779,2.493-.446,4.987-.827,7.479-1.251,2.5-.4,4.992-.822,7.492-1.192s5.02-.688,7.54-.913,5.054-.393,7.582-.533c2.217-.129,4.44-.214,6.666-.289-.084,1.01-.159,1.858-.214,2.492q-3.058.313-6.128.58c-2.507.221-5.02.441-7.534.6s-5.042.263-7.568.359-5.054.156-7.568.318c-1.261.075-2.521.171-3.767.3s-2.486.279-3.711.485a30.724,30.724,0,0,0-3.582.774,8.39,8.39,0,0,0-1.583.584,2.393,2.393,0,0,0-.537.376.646.646,0,0,0-.1.141,8.888,8.888,0,0,0,2.348,1.434,14.861,14.861,0,0,0,3.107.881,35.723,35.723,0,0,0,6.775.376c2.307-.048,4.641-.177,7.038-.29l3.622-.123,3.575-.1q1.788-.048,3.573-.058c1.2.011,2.39.015,3.582.048s2.39.08,3.582.119l3.566.177c.648.032,1.294.074,1.934.117C1956.686,1072.455,1956.707,1073.374,1956.721,1074.443Z" transform="translate(-1912.441 -1062.169)" fill="#ce7b23"/>
                  </g>
                  <g id="Group_259" data-name="Group 259" transform="translate(150.751 45.028)" opacity="0.3">
                    <path id="Path_2568" data-name="Path 2568" d="M1955.163,1083.974l-40.968,1.359q1.276-.1,2.531-.2c3.235-.279,6.436-.526,9.529-.757l9.135-.674c5.927-.428,11.566-.8,16.792-1.037,1.11-.049,2.214-.1,3.3-.154q-.106.659-.21,1.219Z" transform="translate(-1872.523 -1074.289)" fill="#ce7b23"/>
                    <path id="Path_2569" data-name="Path 2569" d="M1967.49,1078.317c-.021.489-.036.971-.064,1.443-.007.251-.028.5-.043.757-4.071.054-8.607-.11-13.508-.291-5.183-.248-10.8-.521-16.729-.807-5.915-.263-12.13-.548-18.558-.279-.809.011-1.617.071-2.418.137-.662.05-1.33.105-2,.154l-.437.033-.612.05-.28.022-.31.039-1.23.159q-1.236.164-2.469.334c-1.66.2-3.235.565-4.88.86-.816.144-1.61.363-2.411.565s-1.6.417-2.406.626c-.815.192-1.582.472-2.369.724s-1.568.517-2.356.773c-1.568.543-3.115,1.115-4.592,1.756-.38.175-.76.357-1.126.543-.653.269-1.307.554-1.948.89a7.494,7.494,0,0,0-2.137,1.557,2.925,2.925,0,0,0-.416.626l-.021-.05a.458.458,0,0,1-.064-.159l-.028-.1a1.534,1.534,0,0,1-.056-.4,2.082,2.082,0,0,1,.584-1.36,7.5,7.5,0,0,1,2.137-1.558,24.521,24.521,0,0,1,2.343-1.047c1.582-.626,3.192-1.157,4.787-1.652.8-.251,1.611-.5,2.42-.751s1.588-.526,2.419-.718l2.448-.626c.808-.214,1.625-.438,2.453-.6s1.653-.356,2.468-.532c.831-.175,1.638-.378,2.462-.5l2.441-.428,1.215-.22.3-.054c.147-.028.218-.033.33-.055l.618-.088c.816-.109,1.64-.229,2.462-.34s1.631-.236,2.448-.312a140.431,140.431,0,0,1,18.938-.84c6.018.111,11.644.587,16.827.9,2.589.175,5.055.363,7.412.495q1.761.091,3.438.208C1965.83,1078.247,1966.674,1078.284,1967.49,1078.317Z" transform="translate(-1884.027 -1076.559)" fill="#ce7b23"/>
                  </g>
                  <g id="Group_260" data-name="Group 260" transform="translate(2.96 51.771)" opacity="0.3">
                    <path id="Path_2570" data-name="Path 2570" d="M1904.832,1087.74c-.014.077-.029.148-.043.22a3.541,3.541,0,0,0-1.005-1.767c-.226-.187-.428-.384-.667-.554-.254-.165-.514-.351-.753-.488l-.548-.286a.026.026,0,0,1-.014-.006c-.085-.066-.177-.126-.281-.192l-.7-.39-.676-.3a6.642,6.642,0,0,0-.724-.292l-.746-.251c-.521-.143-1.026-.308-1.561-.406a31.652,31.652,0,0,0-6.6-.6c-2.243-.022-4.479.159-6.7.345-2.243.2-4.466.39-6.666.593-2.573.219-5.133.45-7.665.7q-2.839.141-5.633.27c-4.311.175-8.55.411-12.706.537q-3.123.1-6.161.2-3.048.124-6.011.247c-7.912.356-15.372.838-22.286,1.233-6.912.45-13.241.857-18.838,1.29-2.791.235-5.4.476-7.819.707-2,.186-3.854.362-5.569.537-.309.011-.619.017-.922.028-2.51.082-4.7.143-6.5.2.021-.3.035-.6.057-.91,1.757-.186,3.875-.406,6.3-.648q3.006-.313,6.639-.648c2.419-.229,5.028-.471,7.819-.707,5.6-.434,11.926-.84,18.838-1.289,6.914-.4,14.374-.879,22.286-1.235q2.963-.123,6.011-.246c2.025-.066,4.079-.138,6.161-.2,4.156-.127,8.395-.362,12.706-.539,4.318-.2,8.707-.4,13.136-.674,1.111-.061,2.222-.121,3.333-.187,1.117-.094,2.236-.176,3.354-.27,2.25-.17,4.536-.3,6.836-.312a34.448,34.448,0,0,1,6.947.576c.577.093,1.133.264,1.708.4.282.087.557.181.83.268a8.686,8.686,0,0,1,.823.3c.28.12.505.2.83.357l.717.367c.239.137.5.323.753.489.239.17.441.367.667.554A3.409,3.409,0,0,1,1904.832,1087.74Z" transform="translate(-1777.032 -1081.441)" fill="#ce7b23"/>
                    <path id="Path_2571" data-name="Path 2571" d="M1969,1090.652a13.864,13.864,0,0,0-.33,1.459l-1.413.066c-3.446.17-7.046.351-10.766.537-1.863.076-3.783.236-5.69.367-1.927.131-3.888.27-5.865.412s-4,.268-6.02.432c-2.011.182-4.057.358-6.132.538q-6.18.535-12.615,1.091-3.206.271-6.462.554l-1.624.137-1.653.1c-1.1.071-2.207.131-3.319.2-2.214.137-4.45.274-6.694.417l-1.681.1-.794.05-.83.028c-1.1.032-2.208.054-3.326.054-2.23.017-4.473-.022-6.716-.125s-4.479-.242-6.687-.493a45.507,45.507,0,0,1-6.47-1.13,16.939,16.939,0,0,1-2.9-1.021,6.193,6.193,0,0,1-2.173-1.5c-.113-.148-.2-.313-.323-.467-.084-.153-.127-.329-.2-.493a3.089,3.089,0,0,1-.1-.526,2.908,2.908,0,0,1,.007-.505,1.115,1.115,0,0,1,.084-.439c0,.011.007.016.007.027.077.165.12.341.2.495.119.153.21.318.323.466a6.179,6.179,0,0,0,2.173,1.5,16.95,16.95,0,0,0,2.9,1.021,45.542,45.542,0,0,0,6.47,1.13c2.208.253,4.444.4,6.687.494s4.486.142,6.716.126c1.119,0,2.229-.022,3.326-.055l.83-.028.794-.048,1.681-.1c2.243-.142,4.479-.279,6.694-.417,1.112-.07,2.223-.131,3.319-.2l1.653-.1,1.624-.137q3.26-.28,6.462-.554,6.425-.561,12.615-1.092,3.112-.271,6.132-.537c2.02-.165,4.038-.29,6.02-.434s3.938-.279,5.865-.411c1.906-.131,3.826-.29,5.69-.368,3.72-.186,7.32-.367,10.766-.537Z" transform="translate(-1742.27 -1077.99)" fill="#ce7b23"/>
                  </g>
                  <g id="Group_261" data-name="Group 261" transform="translate(0 61.814)" opacity="0.3">
                    <path id="Path_2572" data-name="Path 2572" d="M1892.815,1093.332a3.182,3.182,0,0,0-.2-.493l-.168-.264-.148-.187a4.406,4.406,0,0,0-.921-.751.732.732,0,0,0-.091-.05l-.084-.109c-.057-.05-.175-.181-.275-.258a3.522,3.522,0,0,0-.351-.251,6.489,6.489,0,0,0-1.793-.72,18.239,18.239,0,0,0-4.254-.5c-1.463-.038-2.946.005-4.431.089s-2.96.24-4.443.388c-.753.067-1.491.144-2.257.209l-2.257.166-2.068.164-7.046.2c-6.006.153-12.01.3-18.009.51-6,.231-11.99.51-17.974.877l-8.98.539c-2.982.17-6,.454-9,.7s-6,.5-8.98.823q-4.45.51-8.9,1.075l-15.287,3.445v-1.443l15.287-3.445q4.452-.56,8.9-1.075c2.975-.323,5.985-.571,8.98-.823s6.02-.526,9-.7l8.98-.537c5.984-.367,11.976-.648,17.974-.878,6-.213,12-.356,18.009-.51l9-.252c.746-.022,1.506-.044,2.243-.072l2.223-.142c1.5-.1,3-.186,4.521-.258s3.032-.109,4.564-.05a22.426,22.426,0,0,1,4.607.576,7.869,7.869,0,0,1,2.193.878,4.33,4.33,0,0,1,.921.751l.148.186.168.263a3.192,3.192,0,0,1,.2.494,5.674,5.674,0,0,1,.211,1.881c0,.214-.007.428-.022.637A4.259,4.259,0,0,0,1892.815,1093.332Z" transform="translate(-1774.889 -1088.712)" fill="#ce7b23"/>
                    <path id="Path_2573" data-name="Path 2573" d="M1975.251,1097.478c-.1.011-.189.022-.288.028-.169-.79-.281-1.261-.281-1.261h-.029l-31.672,2.288-8.931.57-4.464.284-4.459.209-8.909.411c-2.989.1-6,.12-8.994.181l-4.5.072-4.493.053-9.009.181c-5.991.116-11.983.3-17.939.192-1.49-.026-2.974-.071-4.444-.153-.964-.054-1.941-.131-2.869-.257-.633-.1-1.273-.22-1.92-.379l-.183-.055-.07-.028-.064-.022-.036-.011a2.865,2.865,0,0,1-.59-.412,2.57,2.57,0,0,1-.7-1.333,8.031,8.031,0,0,1-.12-2.221,6.776,6.776,0,0,0,.12.779,2.577,2.577,0,0,0,.7,1.333,2.993,2.993,0,0,0,.59.412l.036.011.064.022.126.049c.084.033.184.077.247.094.133.028.267.055.394.093a30.886,30.886,0,0,0,4.275.483c1.47.082,2.953.125,4.444.153,5.956.1,11.948-.077,17.939-.192l9.009-.181,4.493-.055,4.5-.071c3-.061,6-.077,8.994-.181l8.909-.412,4.459-.209,4.464-.286,8.931-.57,31.672-2.287h.029S1974.942,1095.872,1975.251,1097.478Z" transform="translate(-1742.337 -1086.39)" fill="#ce7b23"/>
                  </g>
                  <g id="Group_262" data-name="Group 262" transform="translate(0.66 71.584)" opacity="0.3">
                    <path id="Path_2574" data-name="Path 2574" d="M1944.621,1110.39s-.7.076-2.032.214l-5.282.488c-12.6-.039-29.513-.093-42.683-.131a23,23,0,0,1-6.295-1.043,7.089,7.089,0,0,1-2.419-1.486l-.246-.236-.2-.242-.21-.235-.24-.347-.239-.356-.021-.022-.007-.01-.043-.083-.112-.176-.421-.713c-.578-.965-1.161-1.981-1.893-3.007a17.79,17.79,0,0,0-1.245-1.542c-.12-.12-.232-.273-.352-.379l-.33-.318-.337-.312-.1-.088-.057-.044-.106-.087-.217-.175a12.145,12.145,0,0,0-4.17-2.047,21.824,21.824,0,0,0-4.557-.734c-1.519-.082-2.982-.054-4.459.011-1.427.072-2.862.2-4.275.292l-4.536.329q-1.94.016-3.882.044l-4.225.1c-1.414.055-2.807.116-4.206.164-4.423.177-8.775.495-13.03.873-1.167.016-2.327.028-3.474.033-5.344.043-10.506.081-15.386.3s-9.472.582-13.762.943c-2.13.2-4.184.373-6.1.593-1.94.225-3.706.472-5.477.7-1.7.247-3.278.495-4.755.736-1.224.2-2.362.368-3.424.565-.113.006-.225.017-.338.022-1.208.1-2.3.2-3.256.268-.253.022-.492.05-.731.083-.043-.3-.091-.6-.127-.9.169-.043.359-.093.549-.131.943-.214,2.04-.423,3.264-.668s2.587-.445,4.064-.686,3.053-.488,4.755-.735c1.771-.225,3.536-.473,5.477-.7,1.92-.219,3.974-.389,6.1-.593,4.29-.362,8.868-.724,13.762-.943s10.042-.253,15.386-.3c2.665-.016,5.379-.044,8.122-.131q4.113-.091,8.3-.307c2.8-.138,5.6-.313,8.431-.489,2.82-.2,5.66-.406,8.495-.615,1.413-.093,2.848-.22,4.275-.29a44.385,44.385,0,0,1,4.459-.011,21.635,21.635,0,0,1,4.557.735,12.141,12.141,0,0,1,4.17,2.045l.217.176.106.088.057.044.1.087.337.314.33.318c.12.1.232.258.352.379a17.534,17.534,0,0,1,1.245,1.542c.732,1.026,1.315,2.04,1.893,3.006l.421.713.112.177.043.082.007.011.021.022.239.357.24.345.21.236.2.242.246.235a7.107,7.107,0,0,0,2.419,1.488,24.4,24.4,0,0,0,6.793,1.069c.619.033,1.238.055,1.857.077l1.843.048c1.258.033,2.5.072,3.713.105,2.412.033,4.753.055,7.018.092,2.285-.006,4.494.016,6.61-.011,4.261-.026,8.164-.038,11.617-.054s6.5.005,8.987.043c2.5.022,4.459.1,5.794.144l2.047.082Z" transform="translate(-1775.367 -1095.785)" fill="#ce7b23"/>
                  </g>
                </g>
                <path id="Path_2575" data-name="Path 2575" d="M1921.616,1118.456c-1.138.153-2.285.307-3.431.449-2.412.286-4.83.582-7.271.785s-4.867.445-7.3.609-4.852.351-7.264.445c-1.2.059-2.4.109-3.594.153-1.188.028-2.376.038-3.558.061s-2.334.026-3.529.021c-1.133.005-2.328-.01-3.495-.043a81.583,81.583,0,0,1-13.095-1.432c-1.982-.384-3.853-.79-5.667-1.13s-3.565-.625-5.281-.838q-2.068-.257-4.029-.4c1.477.043,3.017.12,4.6.257,1.829.153,3.713.373,5.619.675s3.825.636,5.781.944,3.952.57,6.026.751,4.212.279,6.42.3c1.1,0,2.18.011,3.354-.016,1.11-.006,2.292-.082,3.438-.109s2.327-.083,3.5-.1c1.174-.048,2.355-.093,3.536-.137s2.377-.081,3.565-.12c1.2-.055,2.391-.11,3.594-.159,2.4-.088,4.81-.236,7.221-.367C1914.381,1118.835,1918.017,1118.653,1921.616,1118.456Z" transform="translate(-1676.13 -1016.058)" fill="#ce7b23" opacity="0.3"/>
                <path id="Path_2576" data-name="Path 2576" d="M1951.454,1112.875c-1.2.218-2.5.449-3.874.7-2.905.5-6.188,1.053-9.781,1.59-3.587.566-7.51,1.054-11.687,1.438l-3.017.264c.892-.16,1.779-.319,2.651-.473,4.086-.74,7.96-1.333,11.567-1.8,3.594-.493,6.906-.894,9.846-1.244,1.469-.164,2.847-.318,4.12-.461Z" transform="translate(-1649.824 -1017.684)" fill="#ce7b23" opacity="0.3"/>
                <path id="Path_2577" data-name="Path 2577" d="M1898.469,1110.891a1.5,1.5,0,0,1-.626.714,7.971,7.971,0,0,1-1.336.757,39.379,39.379,0,0,1-6.884,2.172c-2.482.565-5,1.071-7.538,1.509-2.4.33-4.8.609-7.2.867-5.114.56-10.219,1-15.261,1.47-9.5.91-18.9,1.591-28.029,2.162a.011.011,0,0,1-.014,0c-.605.011-1.21.022-1.815.028-9.669.17-19.014.039-27.867.016-8.866-.044-17.243-.088-24.978-.127s-14.844-.06-21.145-.022c-3.151.005-6.1.028-8.818.072q-2.045.025-3.924.055h-.021q-1.867-.058-3.565-.116l-10.477-.356c-2.427-.1-3.713-.148-3.713-.148v-.29l3.713-.16c2.419-.093,5.963-.214,10.491-.3,2.265-.066,4.768-.088,7.5-.125s5.668-.066,8.818-.072c6.3-.039,13.4-.006,21.145.022l24.978.126c8.854.022,18.2.153,27.867-.017,9.662-.109,19.648-.624,29.71-1.645a239.407,239.407,0,0,0,30.147-4.388,39.379,39.379,0,0,0,6.884-2.173,7.788,7.788,0,0,0,1.336-.757,1.1,1.1,0,0,0,.091-.071,2.392,2.392,0,0,1,.31.279C1898.469,1110.628,1898.505,1110.749,1898.469,1110.891Z" transform="translate(-1725.258 -1018.746)" fill="#ce7b23" opacity="0.3"/>
                <path id="Path_2578" data-name="Path 2578" d="M1893,1112.833c0,.006-.007.011-.007.017a2.962,2.962,0,0,0-.527-.888,6.705,6.705,0,0,0-1.666-1.339,25.288,25.288,0,0,0-7.455-2.7c-2.574-.559-5.147-.922-7.7-1.219-5.119-.576-10.106-.916-15.084-1.355-4.93-.406-9.958-.669-14.795-.866-9.712-.357-19.106-.439-28-.351-8.847.039-17.292.115-25.076.482a175.447,175.447,0,0,0-21.153,2.112,77.444,77.444,0,0,0-8.522,1.959.257.257,0,0,0-.07.022,34.06,34.06,0,0,0-6.1,2.129,32.584,32.584,0,0,0-8.058,4.981,7.4,7.4,0,0,0-1.463,1.743,3.028,3.028,0,0,0-.246.495c-.048.115-.07.17-.07.17l-.373-.066s.022-.059.064-.187a3.443,3.443,0,0,1,.211-.543,7.6,7.6,0,0,1,1.385-1.914,30.865,30.865,0,0,1,7.9-5.485,37.1,37.1,0,0,1,6.75-2.765,77.049,77.049,0,0,1,8.593-1.979,175.051,175.051,0,0,1,21.153-2.112c7.784-.367,16.229-.445,25.076-.483,8.9-.087,18.29-.006,28,.351,4.837.2,9.865.461,14.795.867,4.978.439,9.965.779,15.084,1.355,2.553.3,5.126.658,7.7,1.217a25.289,25.289,0,0,1,7.455,2.7,6.693,6.693,0,0,1,1.666,1.338,2.976,2.976,0,0,1,.584,1.048A2.057,2.057,0,0,1,1893,1112.833Z" transform="translate(-1717.105 -1021.582)" fill="#ce7b23" opacity="0.3"/>
                <path id="Path_2579" data-name="Path 2579" d="M1827,1106.422c-1.954-.207-3.952-.351-5.879-.46-3.846-.2-7.5-.2-10.85-.078q-1.931.059-3.727.176l21.575.483C1827.745,1106.5,1827.372,1106.461,1827,1106.422Z" transform="translate(-1694.264 -1020.383)" fill="#ce7b23" opacity="0.3"/>
              </g>
            </g>
          </g>
        </g>
        <g id="Group_271" data-name="Group 271" transform="translate(52.119 28.341)">
          <g id="Group_268" data-name="Group 268">
            <path id="Path_2581" data-name="Path 2581" d="M1815.133,1067.507c-3.786.145,7.47-2.97,11.553-3.173s8.516,1.623,11.174,1.685,10.761-.68,10.761-.68,4.388,2.4,7.585,2.178,18.775-.266,18.775-.266l2.029,2.213-2.285-1.153s-6.557.349-12.162.255-9.665.219-12.5-.858-10.83.333-10.83.333-5.935-1.195-9.373-1.52c-1.348-.127-4.84.189-6.862.261C1819.859,1066.9,1818.243,1067.387,1815.133,1067.507Z" transform="translate(-1814.043 -1064.318)" fill="#ce7b23" opacity="0.5"/>
            <path id="Path_2582" data-name="Path 2582" d="M1814.882,1067.366c-3.786.146,7.811-2.432,11.894-2.635s8.516,1.623,11.173,1.685,10.762-.68,10.762-.68,4.388,2.4,7.584,2.178,18.775-.267,18.775-.267l2.229,1.829-2.485-.769s-6.557.349-12.162.256-9.665.219-12.5-.856-10.829.331-10.829.331-5.935-1.195-9.374-1.519c-1.348-.127-4.84.189-6.862.261C1819.948,1067.294,1817.991,1067.248,1814.882,1067.366Z" transform="translate(-1814.133 -1064.167)" fill="#7b4b1a"/>
            <path id="Path_2583" data-name="Path 2583" d="M1815.869,1066.494a72.383,72.383,0,0,1,10.245-1.762c4.082-.2,8.516,1.623,11.173,1.685s10.762-.68,10.762-.68,4.388,2.4,7.585,2.178,18.774-.267,18.774-.267l2.229,1.829-2.826-1.485s-7.206,0-12.785.425c-6.342.485-9.178-.244-12.012-1.322s-10.756.3-10.756.3-4.719-.9-8.158-1.221c-1.347-.127-5.625.212-7.648.283Z" transform="translate(-1813.471 -1064.167)" fill="#1a1c20" opacity="0.3"/>
          </g>
          <path id="Path_2584" data-name="Path 2584" d="M1915,1082.764s-1.1.17-3.017.336-4.66.345-7.95.426c-1.646.032-3.428.076-5.314,0-1.885-.057-3.875-.239-5.93-.372-2.059-.16-4.183-.214-6.343-.173s-4.354.178-6.547.311a8.714,8.714,0,0,0-5,2.1c-1.444,1.127-2.787,2.441-4.249,3.634a25.864,25.864,0,0,1-4.76,3.069,27.9,27.9,0,0,1-4.978,1.913,32.549,32.549,0,0,1-4.484.921c-.672.1-1.309.166-1.9.21-.586.061-1.126.094-1.616.1-.976.044-1.739.044-2.261.038l-.8-.017-.026-.2s.269-.054.769-.157,1.236-.221,2.154-.435,2.026-.449,3.26-.792a39.531,39.531,0,0,0,4.027-1.3,33.544,33.544,0,0,0,8.691-4.859c1.465-1.062,2.866-2.291,4.565-3.477a12.134,12.134,0,0,1,2.974-1.539,9.3,9.3,0,0,1,1.792-.419c.315-.037.653-.055.973-.074l.866.016c2.194.133,4.388.283,6.547.313s4.285-.014,6.343-.173c2.055-.133,4.044-.315,5.93-.373,1.885-.076,3.667-.031,5.314,0,3.29.081,6.032.254,7.95.427s3.017.334,3.017.334Z" transform="translate(-1800.524 -1057.668)" fill="#7b4b1a"/>
          <g id="Group_270" data-name="Group 270" transform="translate(20.78 63.626)">
            <g id="Group_269" data-name="Group 269" transform="translate(28.496)" opacity="0.5">
              <path id="Path_2585" data-name="Path 2585" d="M1849.808,1110.861s1.055-.1,2.9-.211,4.485-.217,7.651-.258c1.583-.007,3.3-.028,5.114.021s3.726.188,5.706.29c1.979.131,4.024.211,6.1.22,2.079.025,4.189-.057,6.3-.13,2.112-.1,4.223-.16,6.3-.2s4.122-.047,6.1-.068,3.891-.008,5.706.039c1.815.031,3.529.094,5.113.149s3.033.13,4.321.214,2.407.132,3.33.207c1.848.138,2.9.242,2.9.242v.146s-1.055.09-2.9.2c-.924.061-2.046.1-3.332.157s-2.738.1-4.321.146-3.3.068-5.112.072c-1.815.021-3.728,0-5.706-.049l-6.1-.16c-2.077-.069-4.188-.168-6.3-.294-2.112-.1-4.222-.218-6.3-.228s-4.125.026-6.1.127c-1.979.073-3.892.189-5.706.2s-3.53-.026-5.113-.058c-3.166-.091-5.805-.232-7.652-.374s-2.9-.258-2.9-.257Z" transform="translate(-1849.807 -1110.381)" fill="#ce7b23" opacity="0.5"/>
            </g>
            <path id="Path_2586" data-name="Path 2586" d="M1831.259,1111.255c8.358.226,12.533.482,14.984,1.79s5.365,1.71,12.464,2,66.275-3.609,66.275-3.609-63.167-.4-74.871-.722A142.855,142.855,0,0,0,1831.259,1111.255Z" transform="translate(-1828.383 -1110.281)" fill="#7b4b1a"/>
            <path id="Path_2587" data-name="Path 2587" d="M1829.177,1111.229c8.358.228,20.8.431,27.9.724s65.819-.54,65.819-.54-63.167-.4-74.87-.721A143.013,143.013,0,0,0,1829.177,1111.229Z" transform="translate(-1829.177 -1110.29)" fill="#1a1c20" opacity="0.3"/>
          </g>
        </g>
      </g>
      <path id="Path_2588" data-name="Path 2588" d="M1776.667,1052.233q-.284,2.3-.565,4.593,2.623,12.687,5.247,25.375l5.735-.2-4.729,1.3q-1.115,5.966-2.228,11.93.027,1.631.054,3.26l5.615-.57-7.6,3.482,1.919,38.432q.794,1.583,1.584,3.168l-2.938.073q.765,7.026,1.531,14.053l2.376,5.36c23.273-2.364,42.623-3.218,56.511-3.542,25.289-.587,46.018.272,81.952,1.763,14.987.621,27.411,1.256,35.994,1.723l.956-4.335a94.843,94.843,0,0,1-1.112-32.4c-1.037.317-2.2.579-2.416.207-.255-.439.972-1.5,1.815-2.479a10.309,10.309,0,0,0,2.965-7.385q.137-7.834.275-15.668l-1.95-.926,2.59-1.422,1.428-15.63q-1.31-1.794-2.617-3.587l3.721-3.942q.782-10.389,1.561-20.779a443.022,443.022,0,0,0-187.67-1.848Z" transform="translate(-1776.102 -899.81)" fill="none" stroke="#1a1311" stroke-linecap="round" stroke-linejoin="round" stroke-width="4.252"/>
      <ellipse id="Ellipse_25" data-name="Ellipse 25" cx="21.525" cy="14.664" rx="21.525" ry="14.664" transform="translate(17.738 135.636)" fill="#e12c00" stroke="#1a1311" stroke-linecap="round" stroke-linejoin="round" stroke-width="4.252"/>
      <ellipse id="Ellipse_26" data-name="Ellipse 26" cx="21.525" cy="14.664" rx="21.525" ry="14.664" transform="translate(125.725 135.636)" fill="#e12c00" stroke="#1a1311" stroke-linecap="round" stroke-linejoin="round" stroke-width="4.252"/>
    </g>
    <g id="Group_686" data-name="Group 686" transform="translate(486.078 25.394)">
      <g id="わたぴー_とは_2" data-name="わたぴー とは 2" transform="translate(571.922 478.606)" opacity="0.976">
        <g id="Group_684" data-name="Group 684">
          <path id="Path_3676" data-name="Path 3676" d="M577.6,514.032l.322-2.059-.082.111-5.922-12.332,2.278-1.571c.108-.074.575-.422,2.193-1.835l-2.182.4-.61-12.2,3.625.236c.5.032.83.052.98.054.174,0,.369,0,.584-.006,0-.181,0-.373,0-.576a8.1,8.1,0,0,0-.093-1.031l-.5-3.705,13.284.111-.827,3.879a24.135,24.135,0,0,0-.313,2.611l.208.191a15.516,15.516,0,0,1,5.191-.923,12.781,12.781,0,0,1,7.34,2.2,11.785,11.785,0,0,1,4.145,4.995,15.244,15.244,0,0,1-.941,13.65,12.791,12.791,0,0,1-6.507,5.266,17.067,17.067,0,0,1-5.932,1,20.827,20.827,0,0,1-3.357-.275l.2,1.819Zm12.4-13.789a13.539,13.539,0,0,0,3.685.666,3.418,3.418,0,0,0,1.889-.425,2.222,2.222,0,0,0,.941-2.145c0-.976-.273-1.144-.42-1.234a1.716,1.716,0,0,0-.9-.19,4.755,4.755,0,0,0-1.857.45,14.749,14.749,0,0,0-3.334,1.991Q590.007,499.809,590.006,500.243Z" transform="translate(-571.922 -478.534)" fill="#1a1311"/>
          <path id="Path_3677" data-name="Path 3677" d="M578.151,505.635l-2.415-5.029q.643-.442,2.766-2.306l1.3-1.178q1.208-1.085,1.574-1.437.016-.918.046-1.743.031-.992.061-1.711l-.582.03-1.757.137q-1.514.139-2.186.26l-.244-4.89c.631.041,1.023.06,1.176.06q1.284,0,3.744-.152.092-1.039.092-3.669a11.289,11.289,0,0,0-.122-1.467l5.578.046a28.627,28.627,0,0,0-.382,3.118q-.045.563-.06,1.542l1.757,1.6a15.827,15.827,0,0,0-1.972,2.032c-.01.164-.015.3-.015.412a3.818,3.818,0,0,1-.03.505,23.761,23.761,0,0,1,3.377-2.079,12.913,12.913,0,0,1,5.579-1.345,9.562,9.562,0,0,1,5.517,1.635,8.541,8.541,0,0,1,3.01,3.638,11.139,11.139,0,0,1,.9,4.538,11.268,11.268,0,0,1-1.636,6.083,9.563,9.563,0,0,1-4.89,3.943,13.779,13.779,0,0,1-4.8.794,18.014,18.014,0,0,1-4.371-.549,20.749,20.749,0,0,0-.244-2.859,20.344,20.344,0,0,0-.673-2.658,17.505,17.505,0,0,0,5.135.963,6.488,6.488,0,0,0,3.7-.978,5.445,5.445,0,0,0,2.369-4.83,4.321,4.321,0,0,0-1.957-3.989,4.835,4.835,0,0,0-2.6-.672,7.889,7.889,0,0,0-3.148.719,18.209,18.209,0,0,0-5.257,3.454q-.031,1.405-.03,2.673,0,2.738.107,6.5.076,2.66.2,3.774h-5.686a18.354,18.354,0,0,0,.183-2.4q.016-1.083.015-4.508.016-.489.046-1.313v-.352q-.367.427-1.146,1.269Q578.7,504.9,578.151,505.635Z" transform="translate(-571.62 -478.294)" fill="#fff"/>
          <path id="Path_3678" data-name="Path 3678" d="M601.271,510.265l1.687-3.275c.466-.906.986-2.085,1.547-3.509a72.33,72.33,0,0,0,2.548-7.891l-3.771.117.184-12.261,3.728.638a18.567,18.567,0,0,0,1.993.212,13.959,13.959,0,0,0,.106-1.468v-3.915l13.365,1.049-1.071,3.511,4.16-1,.136,5.066c1.457-.1,2.951-.153,4.468-.153q.932,0,2.289.031l3.11.07.208,12.043-3.626-.367c-1.19-.12-2.448-.181-3.738-.182l-2.268,2.761c-.073.089-.141.174-.2.255a23.133,23.133,0,0,0,4.53-.528,11.007,11.007,0,0,0,1.62-.479l4.1-1.579.87,13.052-3.159.276q-.651.058-1.542.171a48.764,48.764,0,0,1-6.5.53c-2.708,0-8.014-.467-10.737-3.858-.283.844-.491,1.481-.625,1.919l-1,3.256Z" transform="translate(-569.595 -478.582)" fill="#1a1311"/>
          <path id="Path_3679" data-name="Path 3679" d="M622.4,490.855a56.905,56.905,0,0,1,7.611-.489q.9,0,2.216.03l.092,5.287a40.76,40.76,0,0,0-4.1-.2,49.374,49.374,0,0,0-8.8.765l-.305-4.434q-1.774.185-2.843.23-.719,3.928-1.987,8.529-.947,3.392-2.307,7.473-.505,1.5-.734,2.247l-5.746-2.079q.779-1.514,1.682-3.807a75.481,75.481,0,0,0,3.591-12.226h-.581q-1.3,0-2.935-.091h-.321c-.133,0-.367,0-.7.015l.076-5.089a30,30,0,0,0,4.876.321h.474a34.869,34.869,0,0,0,.534-4.768v-.413l5.853.46a16.444,16.444,0,0,0-.412,1.8q-.183,1.009-.412,2.277l-.077.412a36.907,36.907,0,0,0,5.135-.81Zm-3.423,7.107,4.508,1.467a5.973,5.973,0,0,0-1.68,3.424q0,2.124,3.9,2.124a26.046,26.046,0,0,0,5.272-.6,14.354,14.354,0,0,0,2.124-.627l.367,5.5q-.7.061-1.665.183a46.365,46.365,0,0,1-6.1.5q-9.2,0-9.2-5.915a8.03,8.03,0,0,1,.933-3.561A19.247,19.247,0,0,1,618.98,497.962Z" transform="translate(-569.259 -478.324)" fill="#fff"/>
          <path id="Path_3680" data-name="Path 3680" d="M646.065,513.815a13.719,13.719,0,0,1-7.852-2.224,11.885,11.885,0,0,1-4.357-5.467,14.95,14.95,0,0,1-1.131-5.756,17.4,17.4,0,0,1,1.587-7.246l-1.954.378-.3-12.8,3.744.489a8.325,8.325,0,0,0,1.064.066,44.542,44.542,0,0,0,7.638-.561,5.935,5.935,0,0,0,.941-.227l2.59-.93,1.625,2.93,6.117-1.692q.2-.215.426-.42a6.7,6.7,0,0,1,4.578-1.745,6.54,6.54,0,0,1,4.951,2.224,6.766,6.766,0,0,1-2.01,10.56c.356.368.724.723,1.11,1.061.367.317.721.6,1.035.819l2.3,1.612-5.979,11.784-2.793-2.954a14.888,14.888,0,0,1-2.222,4.6,12.989,12.989,0,0,1-5.186,4.241A14.156,14.156,0,0,1,646.065,513.815Zm2.741-21.2q-.567.539-1.129,1.189c-1.954,2.267-2.943,4.4-2.943,6.353a2.381,2.381,0,0,0,.34,1.417c.1.111.276.3.9.3a1.776,1.776,0,0,0,1.36-.591c.457-.454,1.53-2.048,1.53-6.93Q648.864,493.47,648.807,492.611Z" transform="translate(-567.154 -478.606)" fill="#1a1311"/>
          <path id="Path_3681" data-name="Path 3681" d="M635.26,489.354l-.122-5.2a11.586,11.586,0,0,0,1.483.093,47.482,47.482,0,0,0,8.206-.612,8.977,8.977,0,0,0,1.468-.367l2.644,4.768a15.788,15.788,0,0,0-3.958,3.408q-3.73,4.324-3.73,8.466a5.12,5.12,0,0,0,1.208,3.622,4.254,4.254,0,0,0,3.27,1.33,5,5,0,0,0,3.637-1.528q2.49-2.475,2.491-9.231a27.712,27.712,0,0,0-.84-6.877,14.741,14.741,0,0,0-.642-1.91l5.3-1.467a20.8,20.8,0,0,0,2.46,5.609,21.781,21.781,0,0,0,4.31,5.182,16.413,16.413,0,0,0,1.315,1.038l-2.628,5.181q-.275-.29-.719-.718a23.667,23.667,0,0,1-2.2-2.522,22.9,22.9,0,0,1-1.727-2.659q.167,1.758.168,2.9a13.837,13.837,0,0,1-2.354,8.314,9.759,9.759,0,0,1-3.912,3.195,10.882,10.882,0,0,1-4.57.963,10.518,10.518,0,0,1-6.037-1.666,8.677,8.677,0,0,1-3.179-4.019,11.691,11.691,0,0,1-.887-4.523,15.229,15.229,0,0,1,3.424-9.415,24.266,24.266,0,0,1,1.9-2.109,39.4,39.4,0,0,1-4.081.55Q635.734,489.264,635.26,489.354Zm25.278-7.748a3.32,3.32,0,0,1,2.552,1.162,3.5,3.5,0,0,1-5.211,4.677,3.4,3.4,0,0,1-.9-2.37,3.346,3.346,0,0,1,1.161-2.568A3.448,3.448,0,0,1,660.538,481.606Zm-.076,2.247a1.205,1.205,0,0,0-.917.412,1.26,1.26,0,0,0,.948,2.109,1.229,1.229,0,0,0,.933-.411,1.269,1.269,0,0,0,.321-.856,1.223,1.223,0,0,0-.413-.934A1.277,1.277,0,0,0,660.463,483.853Z" transform="translate(-566.909 -478.368)" fill="#fff"/>
          <path id="Path_3682" data-name="Path 3682" d="M691.316,502.165c-.658-.069-2.254-.153-6.123-.165H670.3c-2.737,0-4.808.062-6.155.185l-3.533.322V489.215l3.662.484c.677.089,1.335.147,1.959.174,1.05.051,2.194.077,3.422.077l15.575,0a57.665,57.665,0,0,0,6.063-.257l3.593-.4V502.54Z" transform="translate(-564.889 -477.765)" fill="#1a1311"/>
          <path id="Path_3683" data-name="Path 3683" d="M663.614,498.689v-6.052q1.162.152,2.246.2,1.9.092,4.174.078h14.961a60.552,60.552,0,0,0,6.419-.276v6.036q-1.6-.167-6.449-.182h-14.9Q665.785,498.491,663.614,498.689Z" transform="translate(-564.651 -477.493)" fill="#fff"/>
        </g>
        <g id="Group_685" data-name="Group 685" transform="translate(52.617 41.907)">
          <path id="Path_3684" data-name="Path 3684" d="M633.042,544.561a27.912,27.912,0,0,1-4.46-.341,11.385,11.385,0,0,1-4.324-1.6,7.575,7.575,0,0,1-2.728-3.127,8.642,8.642,0,0,1-.857-3.8,9.016,9.016,0,0,1,1.554-5.1,10.68,10.68,0,0,1,3.113-2.967q-.38-1.648-.787-3.715c-.153-.77-.222-1-.229-1.02l-1.52-3.8,4.08-.513,7.717-1.155.138,3.613a19.722,19.722,0,0,0,.348,2.434l.052.266q.706-.209,1.524-.444c1-.3,1.271-.412,1.3-.424l3.331-1.562,1.084,3.522,2.459,7.648-1.394.212.746,11.192-3.342.115c-.234.009-.725.042-1.735.158A56.706,56.706,0,0,1,633.042,544.561Zm6.507-11.22c-.546.115-1.115.253-1.7.409l-.432.114q.565-.1,1.125-.22c.2-.044.5-.136.893-.266Z" transform="translate(-620.673 -517.434)" fill="#1a1311"/>
          <path id="Path_3685" data-name="Path 3685" d="M627.127,521.517l4.139-.621a23.339,23.339,0,0,0,.4,2.888q.387,2.059.885,3.817,1.449-.507,4.769-1.46a17.392,17.392,0,0,0,1.738-.586l1.3,4.028a33.941,33.941,0,0,0-3.575.763q-5.623,1.475-7.437,2.712a2.832,2.832,0,0,0-1.5,2.2,1.528,1.528,0,0,0,1.018,1.495,4.953,4.953,0,0,0,1.516.4,18.254,18.254,0,0,0,1.959.1,31.408,31.408,0,0,0,6.662-.719q.41-.089,1.217-.354l.287,4.316q-.641.021-1.991.177a53.407,53.407,0,0,1-5.7.376,24.529,24.529,0,0,1-3.941-.3,8.149,8.149,0,0,1-3.1-1.128,4.352,4.352,0,0,1-1.56-1.815,5.372,5.372,0,0,1-.532-2.38,5.806,5.806,0,0,1,1.007-3.3,8.664,8.664,0,0,1,3.077-2.59q.343-.2,1.085-.565-.62-2.245-1.35-5.953A11.056,11.056,0,0,0,627.127,521.517Z" transform="translate(-620.435 -517.159)" fill="#fff"/>
          <path id="Path_3686" data-name="Path 3686" d="M660.742,542.909a7.774,7.774,0,0,1-1.39.817,10.244,10.244,0,0,1-4.3.862,11.5,11.5,0,0,1-3.011-.374l.016.181-10.613.457v-3.371c0-.046-.014-.359-.149-1.394-.163-1.263-.265-2.125-.311-2.592-.136-1.44-.2-3.009-.2-4.678a47.7,47.7,0,0,1,.44-6.615q.163-1.135.518-3.119a14.27,14.27,0,0,0,.216-1.416v-3.579l10.016.708-.095-.4,4.1.038,8.155-.022L663.3,521.5l3.117-1.025.373,11.061-3.119.215a2.79,2.79,0,0,0-.339.064l-.205.042a22.02,22.02,0,0,1,2.375,1.482,1.974,1.974,0,0,0,.176.109l2.358,1.377-4.361,11.639Zm-7.9-20.277c0-.083-.013-.257-.013-.257l-.007-.031-.148.277Z" transform="translate(-619.079 -517.382)" fill="#1a1311"/>
          <path id="Path_3687" data-name="Path 3687" d="M644.954,521.307l4.216.3a10.664,10.664,0,0,0-.664,2.235,41.138,41.138,0,0,0-1.085,8.788l1.748.587a20.044,20.044,0,0,0-.929,6.385l-.011.542c0,.1.023.406.067.909l-3.852.165a17.5,17.5,0,0,0-.177-1.8q-.232-1.815-.3-2.491-.188-2-.188-4.36a44.271,44.271,0,0,1,.409-6.164q.155-1.083.5-3a14.092,14.092,0,0,0,.265-1.937Zm10.913,4.326v-.7l-.012-.72q0-1.76-.033-2.214a2.919,2.919,0,0,0-.078-.587l3.93-.011a24.057,24.057,0,0,0-.189,3.962,24.369,24.369,0,0,0,2.456-.41,11.628,11.628,0,0,0,1.152-.31l.122,3.62a5.894,5.894,0,0,0-.819.133,28.979,28.979,0,0,1-2.867.432q.023,1.948.2,4.826a20.124,20.124,0,0,1,3.651,2.057,5.057,5.057,0,0,0,.433.277l-1.439,3.84a6.86,6.86,0,0,0-.8-.774,16.387,16.387,0,0,0-1.882-1.373v.177a2.641,2.641,0,0,1-.343,1.339,3.386,3.386,0,0,1-1.594,1.328,7,7,0,0,1-2.943.566,6.22,6.22,0,0,1-3.862-1.074,3.365,3.365,0,0,1-1.04-1.317,4.289,4.289,0,0,1-.4-1.838,3.953,3.953,0,0,1,.453-1.892q1.272-2.357,4.759-2.358a6.878,6.878,0,0,1,1.306.133c-.008-.39-.026-.992-.055-1.8q-.032-.962-.044-1.881c-.406.015-.823.023-1.251.023q-1.229,0-3.286-.1c-.7-.036-1.085-.055-1.151-.055s-.171,0-.311.011l.044-3.651a18.912,18.912,0,0,0,4.238.365Q654.848,525.656,655.867,525.633Zm.243,10.448a4.147,4.147,0,0,0-1.394-.265,1.918,1.918,0,0,0-1.406.421.862.862,0,0,0-.266.63.772.772,0,0,0,.212.554,1.7,1.7,0,0,0,1.283.42,1.676,1.676,0,0,0,1.35-.464,1.323,1.323,0,0,0,.232-.863Z" transform="translate(-618.841 -517.127)" fill="#fff"/>
          <path id="Path_3688" data-name="Path 3688" d="M668.261,544.1V538.28h-.246l.246-2.16v-2.778h.207a8.868,8.868,0,0,1,.467-2.585l-5.558-.527.491-3.37a11.471,11.471,0,0,1,.609-2.5,9.014,9.014,0,0,1,3.734-4.432,11.753,11.753,0,0,1,6.232-1.57,10.788,10.788,0,0,1,7.587,2.609,8,8,0,0,1,.929,10.416A11.191,11.191,0,0,1,679.891,534q-.35.217-.605.379v2.139l.2,1.76h-.2V544.1Z" transform="translate(-617.287 -517.361)" fill="#1a1311"/>
          <path id="Path_3689" data-name="Path 3689" d="M671.372,534.8a9.829,9.829,0,0,0,.044-1.051,6.517,6.517,0,0,1,.3-2.147,4.394,4.394,0,0,1,1.483-1.948q.4-.3,1.549-1a4.059,4.059,0,0,0,1.185-.964,1.533,1.533,0,0,0,.287-.94,1.488,1.488,0,0,0-.552-1.228,2.5,2.5,0,0,0-1.594-.464,2.336,2.336,0,0,0-2.191,1.062,3.677,3.677,0,0,0-.4,1.405l-4.682-.443a8.468,8.468,0,0,1,.42-1.793,5.814,5.814,0,0,1,2.425-2.856,8.543,8.543,0,0,1,4.526-1.085,7.652,7.652,0,0,1,5.39,1.75,4.762,4.762,0,0,1,.542,6.086,8.229,8.229,0,0,1-2.2,1.826q-1.206.753-1.406.9a2.589,2.589,0,0,0-.74.818,2.656,2.656,0,0,0-.221,1.2,7.847,7.847,0,0,0,.054.874Zm-.145,1.538h4.549v4.283h-4.549Z" transform="translate(-617.015 -517.123)" fill="#fff"/>
        </g>
      </g>
    </g>
    <rect id="Rectangle_2088" data-name="Rectangle 2088" width="200" height="270" transform="translate(1023 329)" fill="none"/>
  </g>
</svg>
